<?xml version="1.0" encoding="utf-8"?>
<!-- Generator: Adobe Illustrator 27.5.0, SVG Export Plug-In . SVG Version: 6.00 Build 0)  -->
<svg version="1.1" xmlns="http://www.w3.org/2000/svg" xmlns:xlink="http://www.w3.org/1999/xlink" x="0px" y="0px"
	 viewBox="0 0 3710 3710" style="enable-background:new 0 0 3710 3710;" xml:space="preserve">
<g id="Background">
	<g>
		<g>
			<rect style="fill:#FFFFFF;" width="3710" height="3710"/>
		</g>
	</g>
</g>
<g id="Illustration">
	<g>
		<linearGradient id="SVGID_1_" gradientUnits="userSpaceOnUse" x1="3613.0469" y1="4064.448" x2="1131.943" y2="983.0726">
			<stop  offset="0" style="stop-color:#B37CFF"/>
			<stop  offset="1" style="stop-color:#F895E7"/>
		</linearGradient>
		<path style="opacity:0.3;fill:url(#SVGID_1_);" d="M2932.774,2847.677c-57.116,59.91-111.158,98.545-153.856,129.07
			c-501.905,358.811-1095.791,254.219-1222.009,228.677c-186.384-37.718-546.66-110.625-807.133-415.821
			c-394.074-461.735-332.711-1189.186-27.04-1669.386c55.912-87.837,351.255-575.352,951.538-653.534
			c363.285-47.315,786.758,48.114,1093.426,304.105C3411.423,1308.135,3365.597,2393.674,2932.774,2847.677z"/>
		<g>
			
				<linearGradient id="SVGID_00000063608988883142886440000013062649644804249778_" gradientUnits="userSpaceOnUse" x1="3420.2366" y1="2134.2781" x2="4664.1245" y2="867.4985" gradientTransform="matrix(-1 0 0 1 5549.979 0)">
				<stop  offset="0" style="stop-color:#B37CFF"/>
				<stop  offset="1" style="stop-color:#F895E7"/>
			</linearGradient>
			<path style="fill:url(#SVGID_00000063608988883142886440000013062649644804249778_);" d="M1633.191,1874.082
				c0,0-179.497-896.221-612.262-1394.268c-29.092-33.48-85.635-22.421-99.593,19.611
				C828.003,780.486,634.787,1635.461,1633.191,1874.082z"/>
			<path style="opacity:0.5;fill:#FFFFFF;" d="M1543.519,1814.169c2.165,2.186-0.978,5.464-3.433,3.582
				c-90.519-69.41-437.351-407.8-541.531-1066.197c-0.334-2.115,2.918-2.829,3.442-0.752
				C1040.597,903.813,1201.125,1468.512,1543.519,1814.169z"/>
		</g>
		<g>
			
				<linearGradient id="SVGID_00000052799628217851626600000002722664129246321308_" gradientUnits="userSpaceOnUse" x1="5114.5313" y1="601.2403" x2="4844.4292" y2="1526.3386" gradientTransform="matrix(-0.9842 -0.1773 -0.1773 0.9842 5891.9014 1205.8687)">
				<stop  offset="0" style="stop-color:#B37CFF"/>
				<stop  offset="1" style="stop-color:#F895E7"/>
			</linearGradient>
			<path style="fill:url(#SVGID_00000052799628217851626600000002722664129246321308_);" d="M456.132,748.82
				c-3.544-3.898,0.652-10.805,5.545-9.104c78.098,27.157,356.745,145.783,497.608,493.531
				c128.882,318.173,169.099,569.165,180.513,663.536c2.257,18.661-15.145,34.919-31.498,29.409
				c-96.924-32.654-362.584-139.988-429.281-353.365C599.315,1317.839,625.245,934.825,456.132,748.82z"/>
			<path style="opacity:0.5;fill:#FFFFFF;" d="M652.036,955.428c0,0,233.592,166.746,466.039,939.529
				C1118.075,1894.957,845.233,1135.566,652.036,955.428z"/>
		</g>
		<g>
			<g>
				
					<linearGradient id="SVGID_00000095331873598810359490000010351759221395418253_" gradientUnits="userSpaceOnUse" x1="1437.7841" y1="366.2573" x2="1336.5847" y2="1854.4927">
					<stop  offset="0" style="stop-color:#53D8FF"/>
					<stop  offset="1" style="stop-color:#3840F7"/>
				</linearGradient>
				<path style="fill:url(#SVGID_00000095331873598810359490000010351759221395418253_);" d="M994.27,976.373
					c216.571,15.753,494.961,14.917,803.649,5.953l-119.059,1148.92l-659.174,30.17L994.27,976.373z"/>
				
					<linearGradient id="SVGID_00000004505831588435659840000014617025678290490250_" gradientUnits="userSpaceOnUse" x1="1016.8473" y1="1045.2076" x2="1742.1104" y2="2173.9456">
					<stop  offset="0" style="stop-color:#53D8FF"/>
					<stop  offset="1" style="stop-color:#3840F7"/>
				</linearGradient>
				<path style="fill:url(#SVGID_00000004505831588435659840000014617025678290490250_);" d="M994.27,1059.715
					c216.571,15.753,494.961,14.917,803.649,5.953l-119.059,1148.92l-659.174,30.17L994.27,1059.715z"/>
			</g>
			<g>
				
					<linearGradient id="SVGID_00000138572496354657566560000018421932148549171076_" gradientUnits="userSpaceOnUse" x1="155.1497" y1="2492.604" x2="260.2411" y2="6202.2759" gradientTransform="matrix(0.9386 0.345 -0.345 0.9386 3004.9209 -2179.1553)">
					<stop  offset="0" style="stop-color:#FDF53F"/>
					<stop  offset="0.653" style="stop-color:#E57C58"/>
					<stop  offset="1" style="stop-color:#D93C65"/>
				</linearGradient>
				<path style="fill:url(#SVGID_00000138572496354657566560000018421932148549171076_);" d="M2125.071,1732.332
					c-146.323,493.687-398.638,833.026-563.561,757.936c-164.923-75.091-180.002-536.176-33.679-1029.863
					s398.638-833.027,563.561-757.936C2256.316,777.56,2271.394,1238.645,2125.071,1732.332z"/>
				
					<linearGradient id="SVGID_00000153667078567477234710000007808828885048895164_" gradientUnits="userSpaceOnUse" x1="1029.7731" y1="3670.0417" x2="471.8088" y2="5009.6938" gradientTransform="matrix(0.761 0.6488 -0.6488 0.761 4107.0439 -2530.4888)">
					<stop  offset="0" style="stop-color:#FDF53F"/>
					<stop  offset="0.653" style="stop-color:#E57C58"/>
					<stop  offset="1" style="stop-color:#D93C65"/>
				</linearGradient>
				<path style="fill:url(#SVGID_00000153667078567477234710000007808828885048895164_);" d="M2098.818,1373.547
					c-13.725,20.4-90.889-34.393-172.35-122.385c-81.461-87.992-136.372-175.861-122.647-196.261
					c13.725-20.4,90.889,34.393,172.35,122.385C2057.632,1265.278,2112.543,1353.147,2098.818,1373.547z"/>
				
					<linearGradient id="SVGID_00000111160729579645876260000004497135226001318557_" gradientUnits="userSpaceOnUse" x1="1184.4592" y1="3790.1248" x2="626.4949" y2="5129.7769" gradientTransform="matrix(0.761 0.6488 -0.6488 0.761 4107.0439 -2530.4888)">
					<stop  offset="0" style="stop-color:#FDF53F"/>
					<stop  offset="0.653" style="stop-color:#E57C58"/>
					<stop  offset="1" style="stop-color:#D93C65"/>
				</linearGradient>
				<path style="fill:url(#SVGID_00000111160729579645876260000004497135226001318557_);" d="M2011.188,1630.051
					c-13.725,20.4-90.889-34.393-172.35-122.385c-81.461-87.992-136.372-175.861-122.647-196.261
					c13.725-20.4,90.889,34.393,172.35,122.385C1970.002,1521.782,2024.913,1609.651,2011.188,1630.051z"/>
				
					<linearGradient id="SVGID_00000144308222181443671060000010870639345262341260_" gradientUnits="userSpaceOnUse" x1="1238.3966" y1="4303.168" x2="700.4432" y2="5157.5659" gradientTransform="matrix(0.761 0.6488 -0.6488 0.761 4107.0439 -2530.4888)">
					<stop  offset="0" style="stop-color:#FDF53F"/>
					<stop  offset="0.653" style="stop-color:#E57C58"/>
					<stop  offset="1" style="stop-color:#D93C65"/>
				</linearGradient>
				<path style="fill:url(#SVGID_00000144308222181443671060000010870639345262341260_);" d="M1925.558,1856.869
					c-13.725,20.4-90.889-34.393-172.35-122.385c-81.461-87.992-136.372-175.861-122.647-196.261
					c13.725-20.4,90.889,34.393,172.35,122.385C1884.373,1748.6,1939.283,1836.469,1925.558,1856.869z"/>
				
					<linearGradient id="SVGID_00000127765045788459378450000001977648865575575682_" gradientUnits="userSpaceOnUse" x1="1379.2728" y1="4425.6021" x2="841.3195" y2="5279.9995" gradientTransform="matrix(0.761 0.6488 -0.6488 0.761 4107.0439 -2530.4888)">
					<stop  offset="0" style="stop-color:#FDF53F"/>
					<stop  offset="0.653" style="stop-color:#E57C58"/>
					<stop  offset="1" style="stop-color:#D93C65"/>
				</linearGradient>
				<path style="fill:url(#SVGID_00000127765045788459378450000001977648865575575682_);" d="M1831.019,2079.666
					c-13.725,20.4-90.888-34.393-172.35-122.385c-81.461-87.992-136.372-175.861-122.647-196.261
					c13.725-20.4,90.889,34.393,172.35,122.385C1789.833,1971.396,1844.744,2059.265,1831.019,2079.666z"/>
			</g>
			<g>
				
					<linearGradient id="SVGID_00000032621015991869806770000003117800496088512957_" gradientUnits="userSpaceOnUse" x1="2368.4934" y1="1576.9879" x2="2411.0845" y2="1998.6385" gradientTransform="matrix(0.9945 -0.1046 0.1046 0.9945 -302.9346 94.9863)">
					<stop  offset="0" style="stop-color:#41A362"/>
					<stop  offset="1" style="stop-color:#204F2E"/>
				</linearGradient>
				<path style="fill:url(#SVGID_00000032621015991869806770000003117800496088512957_);" d="M2460.819,1720.875
					c-0.785-4.828-1.939-9.528-3.827-14.049c-1.892-4.532-4.683-8.837-6.06-13.568c-1.277-4.386,0.147-8.427,1.415-12.661
					c1.44-4.813,2.484-9.454,2.714-14.498c0.456-10.008-2.728-19.761-7.278-28.549c-8.394-16.212-23.236-29.54-39.356-37.82
					c-7.751-3.982-16.181-7.033-24.731-8.742c-9.333-1.865-19.905-1.107-28.609-5.344c-7.814-3.803-13.875-10.588-21.079-15.369
					c-8.101-5.376-17.39-7.598-27.06-7.438c-9.498,0.157-18.808,2.575-28.314,2.636c-8.261,0.053-14.987-3.652-21.877-7.805
					c-15.146-9.131-30.22-16.969-47.795-8.947c-8.121,3.707-15.159,9.909-24.426,10.085c-9.684,0.184-18.566-0.629-28.161,1.424
					c-34.383,7.356-60.177,38.464-62.976,72.998c-0.17,2.096,0.574,4.042,1.835,5.652c-0.875,1.167-1.715,2.365-2.482,3.617
					c-8.654,14.125-9.841,32.11-4.262,47.548c6.45,17.847,19.473,30.704,34.335,41.813c3.634,2.716,7.632,5.618,9.723,9.768
					c2.118,4.202,1.94,9.314,1.823,13.886c-0.248,9.639-0.992,19.114,3.045,28.162c3.734,8.368,10.123,15.088,16.99,21.008
					c8.301,7.157,16.924,13.963,25.394,20.919c8.504,6.984,16.979,14.005,25.515,20.95c7.234,5.885,14.894,11.71,23.583,15.261
					c9.286,3.795,18.677,4.575,28.395,1.906c5.135-1.411,10.301-4.092,15.68-4.336c4.76-0.216,9.429,1.558,13.918,2.928
					c18.805,5.738,38.306,4.37,55.831-4.764c7.247-3.777,13.834-12.21,21.802-14.104c4.832-1.149,10.265,0.426,15.179,0.464
					c4.484,0.035,8.986-0.643,13.346-1.66c20.216-4.716,32.144-20.157,42.244-37.077c10.264-17.195,20.155-35.455,24.4-55.204
					C2461.744,1740.421,2462.389,1730.531,2460.819,1720.875z"/>
				
					<linearGradient id="SVGID_00000007419556862535474860000010913986977584411042_" gradientUnits="userSpaceOnUse" x1="2258.833" y1="963.6205" x2="2098.5627" y2="1553.0894" gradientTransform="matrix(0.9945 -0.1046 0.1046 0.9945 -302.9346 94.9863)">
					<stop  offset="0" style="stop-color:#41A362"/>
					<stop  offset="1" style="stop-color:#204F2E"/>
				</linearGradient>
				<path style="fill:url(#SVGID_00000007419556862535474860000010913986977584411042_);" d="M1830.718,1175.569
					c-14.706,38.029-1.684,78.105,15.433,112.823c9.926,20.132,22.268,37.512,44.869,43.862c18.663,5.244,39.071,7.698,58.425,8.023
					c39.265,0.659,80.502-10.539,108.589-39.361c7.286-7.477,13.811-15.863,18.604-25.159c0.651-1.264,1.508-2.754,2.099-4.154
					c3.283,0.941,8.723,1.777,9,1.818c14.049,2.095,26.552-3.405,35.366-13.068c4.038-1.014,7.678-4.562,7.094-9.819
					c-0.009-0.079-0.018-0.159-0.027-0.238c0.511-0.967,1-1.949,1.452-2.955c2.405-5.351,0.288-11.533-3.634-15.785
					c-3.048-23.944-7.649-47.61-20.038-68.873c-6.951-11.93-15.774-21.982-26.393-30.774c-10.544-8.729-22.46-15.874-32.187-25.563
					c-10.553-10.511-14.447-24.781-23.619-36.263c-6.918-8.661-17.114-14.839-27.871-17.401
					c-22.743-5.416-47.81,1.955-63.864,19.003c-13.984,14.85-21.545,33.692-24.826,53.433
					C1875.696,1119.936,1842.861,1144.168,1830.718,1175.569z"/>
				
					<linearGradient id="SVGID_00000097484463419186466880000014392806898596289459_" gradientUnits="userSpaceOnUse" x1="2331.8369" y1="1224.2849" x2="2832.0933" y2="2285.2678" gradientTransform="matrix(0.9945 -0.1046 0.1046 0.9945 -302.9346 94.9863)">
					<stop  offset="0" style="stop-color:#41A362"/>
					<stop  offset="1" style="stop-color:#204F2E"/>
				</linearGradient>
				<path style="fill:url(#SVGID_00000097484463419186466880000014392806898596289459_);" d="M2220.117,1582.918
					c2.362,31.277,17.264,59.673,43.023,77.875c18.095,12.787,40.174,19.601,61.821,16.874
					c8.592,29.378,28.426,55.116,56.544,68.729c31.691,15.341,68.999,14.185,100.082-1.908c15.876-8.22,29.424-15.962,47.245-19.318
					c16.197-3.051,32.757-4.535,48.603-9.276c31.217-9.342,55.858-34.07,59.597-67.277c2.948-26.174-8.041-51.438-27.778-67.514
					c37.162-44.922,39.604-113.001-2.605-157.289c-19.092-20.032-46.247-32.7-73.885-35.491
					c-23.971-24.788-55.426-41.746-91.342-33.86c-27.534,6.046-47.201,29.337-50.767,55.536
					c-24.974-6.061-52.354-1.888-75.441,9.556C2258.738,1447.547,2215.336,1519.611,2220.117,1582.918z"/>
				
					<linearGradient id="SVGID_00000074437023730850800230000009054138622029288123_" gradientUnits="userSpaceOnUse" x1="2328.9902" y1="1707.0676" x2="2007.2086" y2="1392.5658" gradientTransform="matrix(0.9945 -0.1046 0.1046 0.9945 -302.9346 94.9863)">
					<stop  offset="0" style="stop-color:#41A362"/>
					<stop  offset="1" style="stop-color:#204F2E"/>
				</linearGradient>
				<path style="fill:url(#SVGID_00000074437023730850800230000009054138622029288123_);" d="M1795.143,1469.276
					c9.44,28.261,29.76,50.955,57.713,61.739c19.637,7.576,41.556,8.724,60.861,1.185c14.737,25.065,38.983,44.166,68.044,50.173
					c32.753,6.771,66.848-2.958,91.741-25c12.714-11.259,23.395-21.536,39.03-28.766c14.211-6.572,29.119-11.784,42.613-19.832
					c26.584-15.854,43.537-44.354,39.27-75.808c-3.364-24.793-19.352-45.512-41.265-55.735
					c23.796-50.008,10.236-113.282-38.928-144.272c-22.238-14.017-50.192-19.38-76.296-15.531
					c-27.836-17.265-60.747-25.579-91.997-9.975c-23.958,11.963-36.663,37.984-33.863,62.943
					c-24.411,0.218-48.661,10.419-67.268,26.322C1799.277,1335.618,1776.036,1412.075,1795.143,1469.276z"/>
				<g>
					
						<linearGradient id="SVGID_00000135681080364958295790000011476446674136403870_" gradientUnits="userSpaceOnUse" x1="2624.0669" y1="1338.9089" x2="2143.7676" y2="1709.5109" gradientTransform="matrix(0.9945 -0.1046 0.1046 0.9945 -302.9346 94.9863)">
						<stop  offset="0" style="stop-color:#41A362"/>
						<stop  offset="1" style="stop-color:#204F2E"/>
					</linearGradient>
					<path style="fill:url(#SVGID_00000135681080364958295790000011476446674136403870_);" d="M1972.381,1621.561
						c11.054,26.138,35.324,50.839,60.588,53.326c12.681,24.225,28.138,27.043,48.809,43.544
						c38.221,30.51,68.48,45.16,107.487,31.324c35.929-12.744,54.942-67.373,76.177-71.524c21.236-4.151,90.124,7.597,117.482,6.124
						c62.052-3.342,109.985-38.575,136.099-94.668c20.531-44.1-2.882-96.878-2.146-109.731
						c0.736-12.853,66.304-64.226,79.554-102.651c13.974-40.526,10.165-93.61-18.104-133.272
						c-13.996-19.637-36.5-34.148-56.453-45.104c-5.626-3.089-11.285-5.357-16.989-8.054c-4.821-2.279-4.856-4.121-5.572-9.436
						c-1.708-12.674-4.472-25.367-8.896-37.787c-17.759-49.86-52.145-88.647-97.781-106.297
						c-39.174-15.151-86.797-8.001-106.417-5.417c-19.62,2.585-35.308-36.381-86.029-36.587
						c-50.721-0.205-64.194,37.755-84.755,40.464c-91.739-18.086-143.461,36.453-164.359,77.88
						c-26.182,51.901-5.43,79.472-5.305,89.681c-4.051,18.94-36.367,27.964-49.696,36.458
						c-30.965,19.734-41.165,68.758-28.208,112.892c8.951,30.485,33.681,50.847,38.229,66.922
						c4.548,16.075-19.37,62.027-5.583,95.49c13.079,31.744,50.568,62.118,64.933,70.659
						C1979.811,1594.338,1967.384,1609.745,1972.381,1621.561z"/>
				</g>
				
					<linearGradient id="SVGID_00000061430703928953920870000015803096088792879023_" gradientUnits="userSpaceOnUse" x1="2541.5051" y1="2108.0574" x2="2138.377" y2="2574.0588" gradientTransform="matrix(0.9558 -0.2939 0.2939 0.9558 -881.1139 -45.1892)">
					<stop  offset="0" style="stop-color:#41A362"/>
					<stop  offset="1" style="stop-color:#204F2E"/>
				</linearGradient>
				<path style="fill:url(#SVGID_00000061430703928953920870000015803096088792879023_);" d="M2216.399,1650.441
					c-203.94,58.435-481.23,394.969-481.23,394.969l-104.932-148.42c288.2-142.03,247.473-333.458,274.762-395.228
					c6.658-15.07,28.295-18.969,25.975,10.897c-8.439,108.66-26.989,176.052-26.989,176.052
					c111.584-96.173,149.423-179.683,191.005-274.455c0,0,21.566-18.284,18.619,11.815c-1.558,15.906-19.578,75.411-55.731,134.807
					c74.458-48.821,92.121-111.299,115.724-122.819c8.023-3.916,22.435,4.166,22.435,4.166s-89.348,151.258-249.422,288.457
					c0,0,168.362-128.39,239.184-143.766c13.17-2.674,16.566,9.037,1.583,21.811c0,0-37.287,18.658-85.862,56.792
					c66.721-21.877,79.187-28.637,102.468-35.796C2227.27,1622.565,2231.034,1637.643,2216.399,1650.441z"/>
				
					<linearGradient id="SVGID_00000090273703252306209860000018215649538727534519_" gradientUnits="userSpaceOnUse" x1="1968.6844" y1="1178.5288" x2="2514.0093" y2="1797.1741" gradientTransform="matrix(0.9945 -0.1046 0.1046 0.9945 -302.9346 94.9863)">
					<stop  offset="0" style="stop-color:#41A362"/>
					<stop  offset="1" style="stop-color:#204F2E"/>
				</linearGradient>
				<path style="fill:url(#SVGID_00000090273703252306209860000018215649538727534519_);" d="M1878.931,1354.372
					c9.747,13.348,21.788,26.302,36.944,33.504c7.893,3.751,16.381,6.043,25.145,6.223c4.678,0.096,9.296-0.615,13.861-1.589
					c4.812-1.026,10.937-4.001,15.893-3.437c8.593,0.979,17.105,8.276,25.771,10.416c7.547,1.864,15.699,2.454,23.434,1.715
					c18.082-1.728,35.264-9.404,48.193-22.243c6.465-6.42,10.669-14.099,14.811-22.084c4.352-8.39,12.561-6.319,20.686-9.508
					c19.574-7.683,30.836-27.189,37.252-46.18c8.987-26.6,8.742-64.374-13.001-84.36c7.673-18.847-1.071-42.203-17.68-54.637
					c-6.704-5.018-14.245-8.868-22.242-11.793c-4.578-13.282-14.578-24.311-29.026-29.054c-15.679-5.148-33.356-0.784-45.722,9.73
					c-39.819-28.092-94.56-30.199-135.519-1.61c-22.186,15.485-40.572,39.062-46.66,65.774c-4.975,21.828,1.415,45.427,18.941,57.84
					C1840.932,1287.749,1858.626,1326.565,1878.931,1354.372z"/>
				
					<linearGradient id="SVGID_00000144295572274141700940000001604505929991005088_" gradientUnits="userSpaceOnUse" x1="2509.0017" y1="1525.8287" x2="2759.9617" y2="2650.8186" gradientTransform="matrix(0.9945 -0.1046 0.1046 0.9945 -302.9346 94.9863)">
					<stop  offset="0" style="stop-color:#41A362"/>
					<stop  offset="1" style="stop-color:#204F2E"/>
				</linearGradient>
				<path style="fill:url(#SVGID_00000144295572274141700940000001604505929991005088_);" d="M2346.979,1419.591
					c-4.444,3.429-8.557,7.161-12.09,11.536c-3.541,4.385-6.362,9.554-10.384,13.528c-3.729,3.685-8.586,4.454-13.552,5.488
					c-5.644,1.175-10.899,2.657-16.115,5.18c-10.35,5.007-18.455,13.547-24.839,22.939c-11.778,17.327-17.122,39.588-16.675,60.381
					c0.215,9.998,1.74,20.173,4.686,29.736c3.216,10.439,9.755,20.695,10.233,31.794c0.429,9.964-3.108,19.788-3.998,29.67
					c-1.001,11.113,1.83,21.702,7.273,31.374c5.346,9.5,12.873,17.577,18.127,27.137c4.566,8.308,4.5,17.121,4.072,26.344
					c-0.942,20.275-0.62,39.77,17.077,53.126c8.177,6.172,18.281,9.888,23.521,19.144c5.475,9.674,9.507,19.082,16.82,27.645
					c26.205,30.684,71.692,39.726,108.076,23.688c2.208-0.974,3.766-2.787,4.702-4.939c1.656,0.245,3.323,0.439,5.007,0.529
					c18.983,1.019,37.784-7.606,50.319-21.67c14.49-16.258,20.353-36.426,23.448-57.494c0.756-5.151,1.501-10.771,4.548-15.149
					c3.084-4.433,8.341-7.046,13.02-9.424c9.864-5.015,19.833-9.439,26.76-18.456c6.406-8.34,9.698-18.458,11.923-28.623
					c2.689-12.287,4.849-24.708,7.242-37.056c2.403-12.398,4.861-24.787,7.208-37.196c1.988-10.516,3.684-21.429,2.521-32.137
					c-1.242-11.446-5.584-21.35-13.586-29.701c-4.229-4.413-9.757-8.161-12.942-13.458c-2.818-4.686-3.578-10.368-4.647-15.647
					c-4.48-22.114-16.513-41.049-35.305-53.748c-7.771-5.251-19.88-7.293-26.144-14.301c-3.799-4.25-5.177-10.594-7.823-15.574
					c-2.414-4.545-5.557-8.719-8.965-12.563c-15.802-17.828-37.902-21.432-60.496-22.384c-22.961-0.967-46.794-0.976-69.046,5.527
					C2366.2,1407.982,2355.866,1412.733,2346.979,1419.591z"/>
				
					<linearGradient id="SVGID_00000117678614643471438250000016476251206113314218_" gradientUnits="userSpaceOnUse" x1="2460.7209" y1="1388.2872" x2="2035.0635" y2="1859.962" gradientTransform="matrix(0.9945 -0.1046 0.1046 0.9945 -302.9346 94.9863)">
					<stop  offset="0" style="stop-color:#41A362"/>
					<stop  offset="1" style="stop-color:#204F2E"/>
				</linearGradient>
				<path style="fill:url(#SVGID_00000117678614643471438250000016476251206113314218_);" d="M2080.188,1130.734
					c-22.417,23.447-33.947,54.544-30.129,86.94c2.681,22.757,12.711,44.448,29.778,59.207
					c-16.649,26.924-22.723,59.976-13.744,91.012c10.12,34.979,36.81,62.867,70.681,75.639c17.3,6.523,32.623,11.587,47.528,22.969
					c13.548,10.345,26.141,22.053,40.746,30.958c28.772,17.544,64.828,19.39,92.949-0.699
					c22.165-15.835,33.993-41.757,32.705-68.052c60.244-2.491,114.283-47.695,119.147-110.78c2.2-28.535-6.838-58.177-23.806-81.359
					c2.484-35.576-6.23-71.491-37.133-93.655c-23.691-16.992-55.202-16.007-77.814-0.63c-12.611-23.395-34.755-41.564-59.521-51.403
					C2210.991,1066.813,2125.561,1083.276,2080.188,1130.734z"/>
				
					<linearGradient id="SVGID_00000170251694330679524700000018426536432009612198_" gradientUnits="userSpaceOnUse" x1="1856.2589" y1="2525.8977" x2="1850.1007" y2="2909.2595" gradientTransform="matrix(0.9558 -0.2939 0.2939 0.9558 -881.1139 -45.1892)">
					<stop  offset="0" style="stop-color:#41A362"/>
					<stop  offset="1" style="stop-color:#204F2E"/>
				</linearGradient>
				<path style="fill:url(#SVGID_00000170251694330679524700000018426536432009612198_);" d="M1630.238,1896.99
					c26.887-8.266,130.17,100.774,104.932,148.42C1709.931,2093.055,1577.165,1913.306,1630.238,1896.99z"/>
			</g>
			<g>
				
					<linearGradient id="SVGID_00000091012794522487163820000000787588155979907472_" gradientUnits="userSpaceOnUse" x1="4148.6616" y1="988.558" x2="1987.6742" y2="4894.9575" gradientTransform="matrix(0.9998 0.0212 -0.0212 0.9998 -2613.0759 -347.5717)">
					<stop  offset="0" style="stop-color:#2C759E"/>
					<stop  offset="1" style="stop-color:#051042"/>
				</linearGradient>
				<path style="fill:url(#SVGID_00000091012794522487163820000000787588155979907472_);" d="M1030.256,1248.796l10.933-515.037
					l-190.167-4.037l-10.981,517.332c-21.725,16.436-112.839,87.546-113.629,124.769c-0.8,37.698-20.873,983.344-25.198,1187.079
					c-0.515,24.267,17.553,46.587,39.728,56.459c38.135,16.978,102.553,40.109,162.321,41.378
					c59.769,1.269,120.159-19.213,158.98-34.557c22.573-8.924,34.638-30.601,35.153-54.87l25.422-1197.643
					C1122.817,1369.669,1122.616,1313.358,1030.256,1248.796z"/>
				
					<linearGradient id="SVGID_00000049931306831653819640000006635487635297854636_" gradientUnits="userSpaceOnUse" x1="3777.9548" y1="1855.1011" x2="3000.9978" y2="3259.6001" gradientTransform="matrix(0.9998 0.0212 -0.0212 0.9998 -2613.0759 -347.5717)">
					<stop  offset="0" style="stop-color:#CE1567"/>
					<stop  offset="1" style="stop-color:#7A1DBC"/>
				</linearGradient>
				<path style="fill:url(#SVGID_00000049931306831653819640000006635487635297854636_);" d="M1032.58,1637.279l-211.299-4.485
					c-11.668-0.248-21.329,9.011-21.577,20.681l-11.998,565.22c-0.248,11.67,9.011,21.329,20.68,21.577l211.299,4.485
					c11.67,0.248,21.331-9.01,21.578-20.68l11.998-565.22C1053.509,1647.187,1044.25,1637.526,1032.58,1637.279z"/>
				
					<linearGradient id="SVGID_00000101081377752859610200000016662850790939189152_" gradientUnits="userSpaceOnUse" x1="3616.6563" y1="1187.1775" x2="3464.6682" y2="1461.9254" gradientTransform="matrix(0.9998 0.0212 -0.0212 0.9998 -2570.8145 -429.8987)">
					<stop  offset="0" style="stop-color:#CB236D"/>
					<stop  offset="1" style="stop-color:#4C246D"/>
				</linearGradient>
				<polygon style="fill:url(#SVGID_00000101081377752859610200000016662850790939189152_);" points="1033.452,1098.247 
					843.284,1094.21 848.667,840.653 1038.834,844.69 				"/>
				
					<linearGradient id="SVGID_00000177479477826883179320000000390215205068529853_" gradientUnits="userSpaceOnUse" x1="3618.8464" y1="977.171" x2="3310.2102" y2="1535.0905" gradientTransform="matrix(0.9998 0.0212 -0.0212 0.9998 -2570.8145 -429.8987)">
					<stop  offset="0" style="stop-color:#CB236D"/>
					<stop  offset="1" style="stop-color:#4C246D"/>
				</linearGradient>
				<path style="fill:url(#SVGID_00000177479477826883179320000000390215205068529853_);" d="M1030.649,670.117l-166.396-3.532
					c-15.317-0.325-27.996,11.827-28.321,27.145l-2.859,134.701c-0.325,15.318,11.827,27.996,27.144,28.321l166.397,3.532
					c15.316,0.325,27.996-11.826,28.321-27.144l2.859-134.701C1058.118,683.122,1045.965,670.442,1030.649,670.117z"/>
			</g>
			<g>
				
					<linearGradient id="SVGID_00000139990862402079306170000006407472625138620348_" gradientUnits="userSpaceOnUse" x1="825.0605" y1="896.7952" x2="1285.7695" y2="1571.0034">
					<stop  offset="0" style="stop-color:#FDF53F"/>
					<stop  offset="1" style="stop-color:#D93C65"/>
				</linearGradient>
				<path style="fill:url(#SVGID_00000139990862402079306170000006407472625138620348_);" d="M1383.056,1387.993
					c-32.781,12.241-68.871,12.566-102.052,1.453c-36.926-12.368-96.857-15.016-187.677,25.689
					c-178.068,79.809-171.775,428.024,80.978,480.102c330.104,68.015,484.951-95.496,513.45-213.122
					c28.499-117.626-46.909-267.202-193.418-299.161C1446.357,1372.487,1409.519,1378.111,1383.056,1387.993z"/>
				<path style="opacity:0.23;fill:#FFFFFF;" d="M1154.926,1441.274c29.002,1.877,83.071,14.258,33.501,77.64
					c-49.57,63.382-91.141,168.052-69.974,235.921c21.167,67.87-116.516-16.017-124.372-106.274
					C986.224,1558.304,1064.846,1435.443,1154.926,1441.274z"/>
				
					<linearGradient id="SVGID_00000124873836297081667530000007673972103581738166_" gradientUnits="userSpaceOnUse" x1="1395.6852" y1="1348.8979" x2="1302.5629" y2="1465.9922">
					<stop  offset="0" style="stop-color:#FDF53F"/>
					<stop  offset="1" style="stop-color:#D93C65"/>
				</linearGradient>
				<path style="fill:url(#SVGID_00000124873836297081667530000007673972103581738166_);" d="M1427.566,1427.654
					c0,16.504-42.54,29.883-95.016,29.883c-52.476,0-95.016-13.379-95.016-29.883c0-16.504,42.54,0,95.016,0
					C1385.026,1427.654,1427.566,1411.15,1427.566,1427.654z"/>
				
					<linearGradient id="SVGID_00000177451624410923079990000010599651092042364808_" gradientUnits="userSpaceOnUse" x1="1305.2512" y1="1302.2924" x2="1580.2733" y2="1302.2924">
					<stop  offset="0" style="stop-color:#152C19"/>
					<stop  offset="0.9964" style="stop-color:#397851"/>
				</linearGradient>
				<path style="fill:url(#SVGID_00000177451624410923079990000010599651092042364808_);" d="M1307.912,1423.6
					c0,0-30.229-125.491,113.099-205.82c143.328-80.329,140.098-87.596,147.924-45.105c7.825,42.491,51.076,193.085-105.983,257.784
					C1305.892,1495.157,1307.912,1423.6,1307.912,1423.6z"/>
				<path style="opacity:0.23;fill:#FFFFFF;" d="M1543.074,1177.338c-22.486,36.612-126.897,201.842-218.775,267.155
					c0,0,108.971,14.06,187.147-59.144c66.857-62.605,45.717-175.576,38.194-206.975
					C1548.893,1175.252,1544.754,1174.603,1543.074,1177.338z"/>
				
					<linearGradient id="SVGID_00000054225261199625970290000010091153808877034919_" gradientUnits="userSpaceOnUse" x1="1245.2924" y1="1367.536" x2="1340.5542" y2="1367.536">
					<stop  offset="0" style="stop-color:#E40045"/>
					<stop  offset="1" style="stop-color:#5C0E16"/>
				</linearGradient>
				<path style="fill:url(#SVGID_00000054225261199625970290000010091153808877034919_);" d="M1326.099,1446.82
					c2.961,20.608,20.506-2.113,12.28-43.05c-8.225-40.937-16.668-138.288-75.767-121.273
					C1203.513,1299.513,1313.601,1359.842,1326.099,1446.82z"/>
			</g>
			
				<linearGradient id="SVGID_00000091703730114390435930000014777784935960297662_" gradientUnits="userSpaceOnUse" x1="1690.4136" y1="5098.707" x2="1381.2527" y2="-377.875">
				<stop  offset="0" style="stop-color:#FDF53F"/>
				<stop  offset="1" style="stop-color:#D93C65"/>
			</linearGradient>
			<path style="fill:url(#SVGID_00000091703730114390435930000014777784935960297662_);" d="M2435.582,3253.425H652.436
				c-1.933,0-3.5-1.567-3.5-3.5V1701.832c0-1.859,1.507-3.365,3.365-3.365h1783.281V3253.425z"/>
			
				<linearGradient id="SVGID_00000118378754293791454970000013050845383510195381_" gradientUnits="userSpaceOnUse" x1="3214.626" y1="2364.2866" x2="2426.5581" y2="2484.0278">
				<stop  offset="0" style="stop-color:#FDF53F"/>
				<stop  offset="1" style="stop-color:#D93C65"/>
			</linearGradient>
			<path style="fill:url(#SVGID_00000118378754293791454970000013050845383510195381_);" d="M2615.652,3251.296h-232.728V1694.522
				h240.728c2.025,0,3.667,1.642,3.667,3.667V3239.63C2627.318,3246.073,2622.095,3251.296,2615.652,3251.296z"/>
			
				<linearGradient id="SVGID_00000029015938206625606900000011854417504463067813_" gradientUnits="userSpaceOnUse" x1="1318.0701" y1="2549.7529" x2="1713.153" y2="7.038">
				<stop  offset="0" style="stop-color:#FDF53F"/>
				<stop  offset="1" style="stop-color:#D93C65"/>
			</linearGradient>
			<path style="fill:url(#SVGID_00000029015938206625606900000011854417504463067813_);" d="M672.58,1694.603
				c-14.416,0.068-27.681,7.887-34.724,20.466l-167.956,300.006c-4.104,7.331,1.075,16.463,9.328,16.449l1698.908-3.029
				c6.71-0.012,12.909-3.673,16.279-9.614l188.508-324.359L672.58,1694.603z"/>
		</g>
		<g>
			
				<linearGradient id="SVGID_00000038400284049924670980000011195924747967985319_" gradientUnits="userSpaceOnUse" x1="2500.6748" y1="1542.0443" x2="3452.9272" y2="133.9277">
				<stop  offset="0" style="stop-color:#A737D5"/>
				<stop  offset="1" style="stop-color:#EF497A"/>
			</linearGradient>
			
				<circle style="fill:url(#SVGID_00000038400284049924670980000011195924747967985319_);" cx="2967.111" cy="852.314" r="246.481"/>
			<path style="fill:#FFFFFF;" d="M2939.705,1051.969c-13.211,0.864-25.501-5.281-32.34-16.262l-114.846-184.418
				c-10.763-17.282-4.964-40.953,12.947-52.867c17.896-11.907,41.121-7.558,51.87,9.717l79.647,128.015l105.093-214.037
				c9.431-19.209,32.092-28.02,50.599-19.689c18.504,8.328,25.867,30.638,16.449,49.835l-135.81,276.821
				c-6.219,12.675-18.582,21.397-32.283,22.774C2940.589,1051.902,2940.147,1051.94,2939.705,1051.969z"/>
		</g>
		<g>
			<g>
				
					<linearGradient id="SVGID_00000152949306476752138270000006814842370043537324_" gradientUnits="userSpaceOnUse" x1="2333.5779" y1="1929.4998" x2="2860.2771" y2="1509.1526">
					<stop  offset="0" style="stop-color:#C4421B"/>
					<stop  offset="1" style="stop-color:#5C0E16"/>
				</linearGradient>
				<path style="fill:url(#SVGID_00000152949306476752138270000006814842370043537324_);" d="M2179.402,1781.736l45.079,24.258
					c54.064,32.917,102.442,50.309,145.978,56.841c135.936,20.396,224.535-65.375,290.556-117.405
					c87.165-68.693,154.996-35.274,154.996-35.274l-92.958,177.411c-138.819,130.887-281.151,101.82-370.882,59.406
					c-57.12-26.999-92.932-59.406-92.932-59.406C2157.12,1826.674,2179.402,1781.736,2179.402,1781.736z"/>
				
					<linearGradient id="SVGID_00000051378661782280235720000001141021427326327201_" gradientUnits="userSpaceOnUse" x1="2202.1179" y1="1764.78" x2="2728.8162" y2="1344.4337">
					<stop  offset="0" style="stop-color:#C4421B"/>
					<stop  offset="1" style="stop-color:#5C0E16"/>
				</linearGradient>
				<path style="fill:url(#SVGID_00000051378661782280235720000001141021427326327201_);" d="M2046.6,1845.261
					c2.91-9.674,10.063-17.501,19.437-21.271l91.487-36.79c0,0,1.381-11.734-19.33-19.707c-20.712-7.973-15.87-31.17-15.87-31.17
					s28.295,12.908,69.719,33.38c23.69,11.707,36.981,32.379,44.03,47.938l-23.551,30.973
					c-56.386,16.939-113.442,20.178-170.984,13.459L2046.6,1845.261z"/>
			</g>
			
				<linearGradient id="SVGID_00000120552361608726908140000004102599074651668102_" gradientUnits="userSpaceOnUse" x1="1211.9163" y1="3054.4961" x2="1252.8821" y2="3253.7397" gradientTransform="matrix(1 0 0 1 1482.7717 0)">
				<stop  offset="0" style="stop-color:#CB236D"/>
				<stop  offset="1" style="stop-color:#4C246D"/>
			</linearGradient>
			<path style="fill:url(#SVGID_00000120552361608726908140000004102599074651668102_);" d="M2835.989,3138.277
				c0,0,6.964,39.425,10.379,78.45c1.334,15.253-10.424,28.496-25.722,29.133c-51.971,2.165-163.141,6.373-203.032,4.594
				c-5.997-0.267-9.917-6.407-7.698-11.985l0,0c1.859-4.673,5.446-8.452,10.016-10.552l183.632-84.397L2835.989,3138.277z"/>
			
				<linearGradient id="SVGID_00000153681667681586141290000004892922404524556696_" gradientUnits="userSpaceOnUse" x1="2657.4536" y1="3138.1152" x2="2717.1831" y2="3138.1152" gradientTransform="matrix(-1 0 0 1 5499.147 0)">
				<stop  offset="0" style="stop-color:#C4421B"/>
				<stop  offset="1" style="stop-color:#5C0E16"/>
			</linearGradient>
			<path style="fill:url(#SVGID_00000153681667681586141290000004892922404524556696_);" d="M2841.694,3115.112l-5.595,47.158
				c0,0-32.167,14.974-54.134-1.888l13.322-52.552L2841.694,3115.112z"/>
			
				<linearGradient id="SVGID_00000028298023025809621990000015868069365591935154_" gradientUnits="userSpaceOnUse" x1="2383.1282" y1="1550.645" x2="2681.1433" y2="2845.9768" gradientTransform="matrix(-1 0 0 1 5499.147 0)">
				<stop  offset="0" style="stop-color:#2B3582"/>
				<stop  offset="1" style="stop-color:#150E42"/>
			</linearGradient>
			<path style="fill:url(#SVGID_00000028298023025809621990000015868069365591935154_);" d="M2850.674,2197.453
				c2.417,12.768-4.336,668.802-68.71,948.615c-1.05,4.567-7.708,13.528-5.41,17.457c5.586,9.555,46.721,6.872,69.917,7.681
				c7.184,0.251,11.041-8.181,13.069-15.33c18.401-64.92,106.574-390.194,118.078-700.917c12.852-347.203,0-11.822,0-11.822
				l5.712-219.967L2850.674,2197.453z"/>
			
				<linearGradient id="SVGID_00000036967830882425380040000012445609623306402237_" gradientUnits="userSpaceOnUse" x1="1540.3165" y1="3064.8738" x2="1538.4545" y2="3262.2559" gradientTransform="matrix(1 0 0 1 1482.7717 0)">
				<stop  offset="0" style="stop-color:#CB236D"/>
				<stop  offset="1" style="stop-color:#4C246D"/>
			</linearGradient>
			<path style="fill:url(#SVGID_00000036967830882425380040000012445609623306402237_);" d="M3047.226,3158.845
				c0,0,11.086,19.904,21.817,72.791c1.939,9.551-4.734,18.692-14.434,19.646c-17.16,1.687-43.579,3.857-64.742,3.711
				c-9.756-0.066-17.369-8.562-16.193-18.247c2.344-19.303,9.646-50.975,32.207-75.661L3047.226,3158.845z"/>
			
				<linearGradient id="SVGID_00000116222916441318139480000009098975921302838420_" gradientUnits="userSpaceOnUse" x1="2442.1853" y1="3135.052" x2="2493.7573" y2="3135.052" gradientTransform="matrix(-1 0 0 1 5499.147 0)">
				<stop  offset="0" style="stop-color:#C4421B"/>
				<stop  offset="1" style="stop-color:#5C0E16"/>
			</linearGradient>
			<path style="fill:url(#SVGID_00000116222916441318139480000009098975921302838420_);" d="M3056.962,3098.19l-13.074,71.314
				c0,0-12.926,9.615-38.498,2.645l6.241-76.729L3056.962,3098.19z"/>
			
				<linearGradient id="SVGID_00000018936133884751846710000002029161676866280590_" gradientUnits="userSpaceOnUse" x1="2284.0249" y1="1550.3728" x2="2585.8779" y2="2862.3853" gradientTransform="matrix(-1 0 0 1 5499.147 0)">
				<stop  offset="0" style="stop-color:#2B3582"/>
				<stop  offset="1" style="stop-color:#150E42"/>
			</linearGradient>
			<path style="fill:url(#SVGID_00000018936133884751846710000002029161676866280590_);" d="M3088.387,2223.039
				c52.647,331.656-7.527,845.158-29.135,940.684c-1.323,5.848-5.845,10.328-11.524,11.311c-9.646,1.669-25.525,3.031-41.18-1.714
				c-5.394-1.636-9.183-6.715-9.403-12.572c-2.899-77.229,2.319-551.341-46.738-738.713c-2.486-9.495-8.042-17.776-15.729-23.479
				l-80.73-65.795l-1.501-141.868L3088.387,2223.039z"/>
			
				<linearGradient id="SVGID_00000047755599448479288240000009423512213707665289_" gradientUnits="userSpaceOnUse" x1="3061.9392" y1="1693.6503" x2="2641.5918" y2="2316.5759">
				<stop  offset="0" style="stop-color:#53D8FF"/>
				<stop  offset="1" style="stop-color:#3840F7"/>
			</linearGradient>
			<path style="fill:url(#SVGID_00000047755599448479288240000009423512213707665289_);" d="M2786.723,1690.961
				c138.76-2.292,291.865,36.435,291.865,36.435c34.094,198.939,20.405,419.415,13.308,492.02
				c-1.455,14.884,6.507,30.642-8.257,33.027c-72.603,11.729-186.723-0.206-222.185-10.509
				c-12.96-3.765-10.757-17.564-13.511-30.776c-23.807-114.19-91.887-366.046-91.887-366.046
				c-33.004,42.454-79.57,101.86-148.412,117.674c35.082-40.666-32.209-125.948-25.025-156.536
				C2644.857,1736.323,2743.925,1691.669,2786.723,1690.961z"/>
			
				<linearGradient id="SVGID_00000119098130447351451140000007277467574678576535_" gradientUnits="userSpaceOnUse" x1="2527.4634" y1="1650.7281" x2="2661.7383" y2="1650.7281" gradientTransform="matrix(-1 0 0 1 5499.147 0)">
				<stop  offset="0" style="stop-color:#C4421B"/>
				<stop  offset="1" style="stop-color:#5C0E16"/>
			</linearGradient>
			<path style="fill:url(#SVGID_00000119098130447351451140000007277467574678576535_);" d="M2927.276,1578.31l44.151,127.682
				c0.732,2.116-0.138,4.457-2.096,5.54c-12.035,6.654-55.396,25.888-107.649-7.241c-5.443-3.452-9.148-9.079-9.975-15.471
				l-14.297-110.51H2927.276z"/>
			<g>
				
					<linearGradient id="SVGID_00000065787798529525563930000005202358028078374572_" gradientUnits="userSpaceOnUse" x1="-3392.1414" y1="146.9843" x2="-3442.3186" y2="-18.5124" gradientTransform="matrix(-0.746 -0.6659 -0.6659 0.746 372.8118 -803.1727)">
					<stop  offset="0" style="stop-color:#C4421B"/>
					<stop  offset="1" style="stop-color:#5C0E16"/>
				</linearGradient>
				<path style="fill:url(#SVGID_00000065787798529525563930000005202358028078374572_);" d="M2831.209,1460.073
					c0,0-48.483,91.263-42.269,128.129c6.215,36.866,66.301,34.219,118.771,4.278l36.665-98.544L2831.209,1460.073z"/>
				
					<linearGradient id="SVGID_00000124872993167808446980000002709682462435086477_" gradientUnits="userSpaceOnUse" x1="-3449.1643" y1="-101.2143" x2="-3413.8821" y2="100.0247" gradientTransform="matrix(-0.746 -0.6659 -0.6659 0.746 372.8118 -803.1727)">
					<stop  offset="0" style="stop-color:#2B3582"/>
					<stop  offset="1" style="stop-color:#150E42"/>
				</linearGradient>
				<path style="fill:url(#SVGID_00000124872993167808446980000002709682462435086477_);" d="M2905.393,1544.086
					c-2.133-0.945-2.92-3.554-1.642-5.506c3.884-5.933,11.165-18.04,13.489-28.638c0,0,8.715-5.582-22.184-12.978
					c-16.824-4.027-46.651-7.359-59.76-19.455c-14.67-13.536,12.377-39.11,23.749-45.977c15.008-9.061,33.28-14.421,50.206-9.855
					c8.168,2.203,15.559,6.569,22.835,10.886c12.391,7.351,25.218,15.111,33.097,27.173c5.101,7.809,7.774,16.919,10.221,25.92
					c3.517,12.931,6.735,26.175,6.125,39.562c-1.627,35.665-43.425,67.619-77.04,71.523c-2.749,0.319-4.88-2.396-3.979-5.013
					l13.74-39.94c0.638-1.855-0.25-3.89-2.043-4.685L2905.393,1544.086z"/>
				
					<linearGradient id="SVGID_00000027595818000442923830000002698172656316041623_" gradientUnits="userSpaceOnUse" x1="-3443.4348" y1="146.2136" x2="-3488.5801" y2="-2.686" gradientTransform="matrix(-0.746 -0.6659 -0.6659 0.746 372.8118 -803.1727)">
					<stop  offset="0" style="stop-color:#C4421B"/>
					<stop  offset="1" style="stop-color:#5C0E16"/>
				</linearGradient>
				<path style="fill:url(#SVGID_00000027595818000442923830000002698172656316041623_);" d="M2899.87,1549.754
					c0,0,34.52-23.684,37.042-3.739c2.522,19.945-31.085,28.889-47.731,21.454L2899.87,1549.754z"/>
			</g>
			<g>
				
					<linearGradient id="SVGID_00000160170372786920284640000013101455049973854624_" gradientUnits="userSpaceOnUse" x1="3001.5444" y1="1224.3878" x2="2819.2253" y2="1700.4426">
					<stop  offset="0" style="stop-color:#53D8FF"/>
					<stop  offset="1" style="stop-color:#3840F7"/>
				</linearGradient>
				<path style="fill:url(#SVGID_00000160170372786920284640000013101455049973854624_);" d="M2813.547,1437.688
					c70.829-133.788,254.406-12.246,168.97,100.456C2918.995,1495.908,2847.217,1433.121,2813.547,1437.688z"/>
			</g>
			
				<linearGradient id="SVGID_00000103246295568790047640000018295292763388492466_" gradientUnits="userSpaceOnUse" x1="2982.5464" y1="1243.7914" x2="2774.905" y2="1552.7207">
				<stop  offset="0" style="stop-color:#53D8FF"/>
				<stop  offset="1" style="stop-color:#3840F7"/>
			</linearGradient>
			<path style="fill:url(#SVGID_00000103246295568790047640000018295292763388492466_);" d="M2924.178,1494.361l-127.186-3.934
				c-3.23-0.1-6.18-1.887-7.746-4.714c-11.394-20.575-28.065-33.682-48.912-40.882c-2.637-0.911-2.091-4.8,0.693-4.989l77.975-5.303
				c0.086-0.006,0.174-0.006,0.26,0.001c38.861,2.987,73.263,26.368,106.08,56.999
				C2926.436,1492.56,2925.675,1494.407,2924.178,1494.361z"/>
			
				<linearGradient id="SVGID_00000175302368925149662340000003860825202132277393_" gradientUnits="userSpaceOnUse" x1="3192.0964" y1="1781.4797" x2="2771.7498" y2="2404.4043">
				<stop  offset="0" style="stop-color:#53D8FF"/>
				<stop  offset="1" style="stop-color:#3840F7"/>
			</linearGradient>
			<path style="fill:url(#SVGID_00000175302368925149662340000003860825202132277393_);" d="M3062.873,1929.914
				c-77.661-87.189-69.795-154.31,17.861-202.629c0,0,145.296,98.723,169.19,223.891c-27.453,2.023-77.41,9.163-126.308,33.853
				C3112.871,1925.928,3062.873,1929.914,3062.873,1929.914z"/>
			
				<linearGradient id="SVGID_00000036243772832053194280000013350456615507871123_" gradientUnits="userSpaceOnUse" x1="4319.0161" y1="2048.3611" x2="4699.7437" y2="2048.3611" gradientTransform="matrix(-1 0 0 1 7572.2534 0)">
				<stop  offset="0" style="stop-color:#C4421B"/>
				<stop  offset="1" style="stop-color:#5C0E16"/>
			</linearGradient>
			<path style="fill:url(#SVGID_00000036243772832053194280000013350456615507871123_);" d="M2894.098,2019.638
				c0,0,163.13,92.194,218.174,13.471c11.428-16.346,14.16-32.591,11.346-48.079c48.897-24.69,98.854-31.83,126.308-33.853
				c7.205,37.734,3.396,77.867-18.778,118.43c-96.416,176.373-358.637-9.747-358.637-9.747L2894.098,2019.638z"/>
			<g>
				
					<linearGradient id="SVGID_00000032630073108374450430000007610491463749501077_" gradientUnits="userSpaceOnUse" x1="4829.2671" y1="1837.4198" x2="5038.6162" y2="2709.7083" gradientTransform="matrix(-1 0 0 1 7572.2534 0)">
					<stop  offset="0" style="stop-color:#2B3582"/>
					<stop  offset="1" style="stop-color:#150E42"/>
				</linearGradient>
				<path style="fill:url(#SVGID_00000032630073108374450430000007610491463749501077_);" d="M2913.697,2136.273l-89.03-310.915
					c-1.011-3.53-4.021-6.104-7.668-6.529c-16.13-1.881-62.872-7.165-116.839-11.73c-65.005-5.499-140.495-9.953-185.605-6.164
					c-6.412,0.539-10.288,7.322-7.436,13.092c25.652,51.898,131.171,263.008,184.011,332.166c1.75,2.291,4.458,3.631,7.341,3.604
					l206.566-1.922C2911.048,2147.818,2915.353,2142.051,2913.697,2136.273z"/>
				
					<linearGradient id="SVGID_00000025423957411617459000000008599926210790817714_" gradientUnits="userSpaceOnUse" x1="4904.7002" y1="1821.537" x2="4860.1147" y2="2017.3252" gradientTransform="matrix(-1 0 0 1 7572.2534 0)">
					<stop  offset="0" style="stop-color:#CB236D"/>
					<stop  offset="1" style="stop-color:#4C246D"/>
				</linearGradient>
				<path style="fill:url(#SVGID_00000025423957411617459000000008599926210790817714_);" d="M2690.926,1780.143l-64.55-10.755
					c-3.438-0.573-6.253,2.712-5.16,6.022l6.39,19.362c0.556,1.686,2.026,2.906,3.786,3.14l62.115,8.297
					c3.213,0.43,5.863-2.49,5.125-5.647l-3.956-16.905C2694.249,1781.836,2692.771,1780.449,2690.926,1780.143z"/>
				
					<linearGradient id="SVGID_00000021096005520527302350000017886104086054876851_" gradientUnits="userSpaceOnUse" x1="4893.3677" y1="1898.0979" x2="4872.0439" y2="2026.0393" gradientTransform="matrix(-1 0 0 1 7572.2534 0)">
					<stop  offset="0" style="stop-color:#CB236D"/>
					<stop  offset="1" style="stop-color:#4C246D"/>
				</linearGradient>
				<path style="fill:url(#SVGID_00000021096005520527302350000017886104086054876851_);" d="M2739.258,1834.789l-5.318-27.698
					c-0.533-2.778-2.826-4.877-5.64-5.163l-130.374-13.229c-4.389-0.446-7.902,3.576-6.872,7.864l8.289,34.516
					c0.663,2.761,3.067,4.756,5.903,4.899l127.403,6.414C2736.795,1842.599,2740.041,1838.867,2739.258,1834.789z"/>
				
					<linearGradient id="SVGID_00000075164177776251829900000010896898083738081164_" gradientUnits="userSpaceOnUse" x1="4671.4766" y1="2008.4419" x2="4790.0894" y2="2008.4419" gradientTransform="matrix(-1 0 0 1 7572.2534 0)">
					<stop  offset="0" style="stop-color:#C4421B"/>
					<stop  offset="1" style="stop-color:#5C0E16"/>
				</linearGradient>
				<path style="fill:url(#SVGID_00000075164177776251829900000010896898083738081164_);" d="M2892.188,2061.155
					c0,0,12.403-50.997,7.4-69.089c-5.003-18.092-14.695-41.354-47.004-36.185c-32.309,5.169-70.419,18.779-70.419,18.779
					s1.925,23.567,26.48,15.963l-15.226,11.782c0,0,2.176,18.87,22.916,8.789l-14.161,15.625c0,0,8.907,15.497,24.167,5.558
					C2841.598,2022.436,2848.913,2067.296,2892.188,2061.155z"/>
			</g>
			<g>
				
					<linearGradient id="SVGID_00000039818160797549822840000008706959997141411760_" gradientUnits="userSpaceOnUse" x1="3144.2639" y1="1212.3452" x2="2810.0125" y2="2731.6726">
					<stop  offset="0" style="stop-color:#53D8FF"/>
					<stop  offset="1" style="stop-color:#3840F7"/>
				</linearGradient>
				<path style="fill:url(#SVGID_00000039818160797549822840000008706959997141411760_);" d="M2943.885,1867.024
					c10.184,0.819,96.312,3.58,96.312,3.58l-3.476,86.708l-44.618,25.165l-48.217-25.165V1867.024z"/>
				
					<linearGradient id="SVGID_00000167355868334811679660000005932715810169828484_" gradientUnits="userSpaceOnUse" x1="3019.0815" y1="1830.7313" x2="2360.7095" y2="3096.8333">
					<stop  offset="0" style="stop-color:#53D8FF"/>
					<stop  offset="1" style="stop-color:#3840F7"/>
				</linearGradient>
				<polygon style="fill:url(#SVGID_00000167355868334811679660000005932715810169828484_);" points="2937.046,1867.024 
					3040.004,1870.604 3044.213,1903.87 2990.629,1917.79 2933.673,1892.407 				"/>
			</g>
		</g>
	</g>
</g>
</svg>
