<?xml version="1.0" encoding="UTF-8"?>
<svg xmlns="http://www.w3.org/2000/svg" version="1.1" viewBox="0 0 282.406 228.26">
  <!-- Generator: Adobe Illustrator 28.7.7, SVG Export Plug-In . SVG Version: 1.2.0 Build 194)  -->
  <g style="isolation: isolate;">
    <g id="Layer_1">
      <g>
        <circle cx="138.38" cy="114.13" r="110.706" transform="translate(-40.172 131.278) rotate(-45)" style="fill: #fffded;"/>
        <g>
          <g>
            <path d="M260.737,128.781c-.596-14.396-4.945-28.497-11.88-41.017-.137-.25-.347.04-.243.24,5.92,11.307,9.805,23.71,10.888,36.403.55,6.336.47,12.741-.324,19.041-.804,6.296-2.47,12.478-4.948,18.32-4.886,11.657-13.107,21.736-22.914,29.649-9.842,7.92-21.305,13.794-33.413,17.411-6.823,2.021-13.846,3.354-20.934,3.975-4.076.33-8.171.404-12.259.232-.052.275-.104.549-.154.825,9.844.714,19.831-.293,29.418-2.696,12.484-3.147,24.362-8.7,34.737-16.305,10.282-7.552,19.109-17.321,24.752-28.842,2.835-5.737,4.888-11.86,6.063-18.147,1.171-6.294,1.483-12.712,1.211-19.088Z" style="fill: #9d9fa2;"/>
            <g>
              <path d="M233.221,59.505c-.705-.618-1.413-1.238-2.146-1.838-.747-.615-1.444-1.151-2.346-1.759.663,1.18,1.084,2.226,1.572,3.332.457,1.085.916,2.172,1.379,3.27,1.589,3.778,3.556,7.47,5.428,11.182,1.155,2.262,2.314,4.535,3.479,6.818,2.957,5.303,5.975,10.716,8.927,16.011,1.143,1.975,2.307,3.945,3.424,5.947.667,1.004,1.305,2.002,2.029,2.894.707,1.316,1.243,2.945,2.272,3.779.26.211.555-.085.534-.446-.192-3.958-.693-7.95-1.623-11.923-.912-3.933-2.216-7.827-3.828-11.609-1.631-3.859-3.544-7.64-5.851-11.199-2.281-3.515-4.957-6.733-7.929-9.658-1.704-1.678-3.52-3.223-5.322-4.8Z" style="fill: #9d9fa2;"/>
              <path d="M259.522,80.713c-.236,3.082-.484,6.113-.608,9.274-.255,6.476-.427,13.281-.346,19.907-.004,1.814.074,3.622.177,5.444.309,2.773.696,5.53,1.229,8.279.084-.034.164-.085.224-.157.817-.974,1.41-2.157,1.998-3.442.287-.642.558-1.306.818-1.978.228-.675.455-1.347.677-2.004.505-1.507.954-3.083,1.271-4.694.17-.808.329-1.63.478-2.463.138-.83.234-1.662.339-2.509.799-6.726.611-13.949-.718-21.191-.278-1.441-.551-2.921-.925-4.36l-.978-2.59c-.358-.849-.728-1.699-1.116-2.546-.423-.954-.91-1.871-1.385-2.799-.824,2.238-.946,5.136-1.136,7.829Z" style="fill: #9d9fa2;"/>
              <path d="M260.411,131.986c-.023-1.718-.182-3.443-.424-5.145-.329-1.697-.636-3.384-1.179-5.009l-.704-2.585c-1.107-3.597-2.499-7.048-4.361-10.162-2.355-4.052-5.377-7.713-8.759-10.481-1.263-.869-2.504-1.667-3.866-2.294-1.479-.709-2.989-1.294-4.529-1.58-.935-.18-1.916-.263-2.801-.065,1.983,2.784,3.823,5.627,5.714,8.466.749.96,1.506,1.914,2.233,2.885l1.129,1.45,1.085,1.478c3.809,5.129,7.304,10.556,10.601,16.364.426.76.884,1.516,1.333,2.261.428.746.881,1.479,1.367,2.189,1.01,1.431,2,2.849,2.618,4.648.196-.795.376-1.601.541-2.418Z" style="fill: #9d9fa2;"/>
              <path d="M263.916,141.044c2.931-3.372,5.615-7.399,7.529-12.092.966-2.33,1.684-4.774,2.363-7.326.631-2.944,1.01-6.049,1.17-9.223.094-1.182.11-2.47.062-3.795-.046-1.325-.182-2.681-.557-3.937-1.41,1.615-2.286,4.327-3.144,6.684-1.095,2.832-2.219,5.505-3.355,8.333-2.288,5.881-4.586,11.936-6.545,18.094-.273.843-.52,1.697-.737,2.559-.215.863-.494,1.727-.693,2.598-.183.758-.382,1.576-.482,2.392,1.474-1.299,2.952-2.712,4.389-4.287Z" style="fill: #9d9fa2;"/>
            </g>
            <g>
              <path d="M257.503,154.442c.281-1.49.456-2.997.574-4.483.04-1.504-.027-2.999-.136-4.45-.026-.769-.135-1.544-.202-2.306-.082-.806-.174-1.602-.278-2.389-.115-.789-.3-1.583-.464-2.359-.172-.778-.354-1.545-.548-2.3-.211-.756-.471-1.5-.721-2.23-1.259-3.791-3.262-7.329-5.577-10.162-.923-.917-1.873-1.762-2.877-2.495-1.09-.816-2.337-1.518-3.565-1.99-.761-.289-1.583-.503-2.378-.47.55,1.318,1.144,2.639,1.644,3.98l.819,2.01c.249.675.51,1.35.785,2.027.482.931.923,1.865,1.369,2.806.438.941.969,1.886,1.37,2.85.54,1.249,1.166,2.511,1.698,3.788.546,1.296,1.09,2.584,1.631,3.867.516,1.289,1.029,2.573,1.541,3.851.474,1.329.945,2.653,1.415,3.972.53,1.42.914,2.803,1.534,4.156.629,1.367,1.226,2.707,1.414,4.331.329-.657.646-1.325.952-2.004Z" style="fill: #9d9fa2;"/>
              <path d="M257.304,165.773c2.053-1.064,3.898-2.421,5.83-3.939.973-.757,1.816-1.613,2.724-2.495.873-.893,1.82-1.815,2.602-2.835.784-1.011,1.561-2.062,2.329-3.152.779-1.087,1.412-2.241,2.108-3.416.375-.687.74-1.39,1.097-2.106.338-.718.629-1.454.935-2.199.294-.755.588-1.512.884-2.271l.43-1.159.366-1.127c.357-1.115.753-2.351,1.074-3.64.326-1.288.472-2.639.486-3.954-1.827,1.193-3.287,3.582-4.811,5.623-1.713,2.413-3.67,4.789-5.447,7.261-3.759,4.933-7.725,10.138-11.805,15.492-.999,1.449-2.15,2.863-3.074,4.386-.393.669-.932,1.332-1.318,2.058,1.913-.674,3.739-1.516,5.59-2.526Z" style="fill: #9d9fa2;"/>
            </g>
            <g>
              <path d="M243.453,180.404c1.079-1.337,2.139-2.704,2.978-4.215.437-.743.855-1.493,1.256-2.248.361-.781.7-1.568,1.023-2.354.37-.814.773-1.603,1.073-2.445.678-1.751,1.333-3.482,1.746-5.283.217-.894.466-1.763.61-2.662.142-.9.268-1.792.376-2.675.171-1.133.184-2.307.201-3.452.011-1.147.021-2.271-.129-3.405-.122-1.127-.263-2.224-.458-3.292-.254-1.082-.538-2.128-.854-3.132-.502-1.354-1.263-2.669-2.028-3.859-.441-.666-.875-1.285-1.379-1.896-.515-.62-1.056-1.197-1.629-1.713-.702-.632-1.495-1.205-2.353-1.494l.151,2.49c.08.856.04,1.574.085,2.374.012.779.105,1.577.088,2.354-.008.78,0,1.566.024,2.36.163,1.142.143,2.243.262,3.395.127,1.156.131,2.29.168,3.457.162,6.035-.27,12.364-1.415,18.86-.342,1.669-.545,3.437-.759,5.108-.207,1.687-.262,3.495-1.008,5.222.678-.465,1.352-.949,1.971-1.495Z" style="fill: #9d9fa2;"/>
              <path d="M242.313,187.444c2.216-.384,4.48-.955,6.755-1.747,2.231-.835,4.563-1.811,6.766-3.133,2.227-1.276,4.313-2.839,6.439-4.525,2.314-2.057,4.546-4.413,6.574-7.034.383-.484.785-.993,1.198-1.515.379-.544.761-1.113,1.13-1.702.724-1.182,1.45-2.425,1.881-3.741-2.114.594-4.441,2.415-6.505,3.929-2.615,1.738-5.094,3.322-7.738,4.951-5.409,3.453-10.967,6.843-16.361,10.42-.741.487-1.464,1.004-2.176,1.537-.742.505-1.466,1.034-2.171,1.585-.619.473-1.26,1.015-1.888,1.548,2.013-.045,3.996-.267,6.096-.574Z" style="fill: #9d9fa2;"/>
            </g>
            <g>
              <path d="M226.715,195.678c1.148-.992,2.263-2.014,3.277-3.12.986-1.142,1.932-2.292,2.768-3.502l1.359-1.886c1.894-2.636,3.408-5.47,4.531-8.323.391-.903.672-1.874.95-2.818.263-.954.539-1.873.703-2.833.31-1.93.571-3.757.471-5.601-.147-1.268-.319-2.468-.686-3.654-.416-1.319-.921-2.575-1.611-3.673-.426-.675-.93-1.322-1.594-1.785-.37,1.279-.683,2.603-1.072,3.912-.442,1.282-.743,2.658-1.218,3.967-.224.991-.447,1.975-.669,2.956-.251.999-.502,1.995-.753,2.99-1.395,5.205-3.226,10.494-5.339,15.852-.526,1.435-1.094,2.799-1.491,4.225-.202.716-.388,1.443-.626,2.171-.249.713-.56,1.413-.987,2.112.664-.316,1.339-.626,1.985-.989Z" style="fill: #9d9fa2;"/>
              <path d="M223.738,202.206c2.268.253,4.531.203,6.939.093,1.185-.086,2.372-.241,3.592-.42,1.22-.179,2.458-.4,3.678-.724,1.207-.325,2.429-.682,3.663-1.071,1.207-.428,2.421-.896,3.649-1.391,1.416-.581,2.759-1.331,4.131-2.099.684-.397,1.369-.796,2.057-1.196.666-.444,1.335-.889,2.005-1.335.98-.685,2.121-1.386,3.14-2.282,1.033-.88,2.04-1.853,2.875-2.915-2.229-.16-4.868.914-7.336,1.635-1.454.408-2.901.813-4.357,1.221-1.462.367-2.929.72-4.384,1.137-6.121,1.67-12.359,3.375-18.481,5.442-1.652.603-3.358,1.192-4.987,1.924-.703.329-1.49.639-2.218,1.021,1.973.465,3.943.745,6.033.963Z" style="fill: #9d9fa2;"/>
            </g>
            <g>
              <path d="M205.246,207.21c1.342-.544,2.62-1.244,3.844-2.014.613-.383,1.219-.771,1.803-1.189.576-.436,1.139-.884,1.687-1.342l1.789-1.35c1.214-1.013,2.393-2.038,3.497-3.114,1.076-1.124,2.11-2.248,3.049-3.428,1.174-1.592,2.32-3.15,3.199-4.893.453-.854.871-1.711,1.248-2.567.357-.88.662-1.773.929-2.652.278-1.258.474-2.511.491-3.811.036-1.426-.033-2.832-.336-4.17-.198-.831-.505-1.691-.994-2.402-.734,1.14-1.606,2.18-2.376,3.324-.814,1.106-1.669,2.191-2.46,3.362-1.091,1.667-2.064,3.49-3.193,5.216-2.851,4.568-5.967,9.154-9.282,13.824-.878,1.199-1.717,2.451-2.434,3.763-.737,1.288-1.423,2.64-2.55,3.8.695-.103,1.391-.222,2.088-.358Z" style="fill: #9d9fa2;"/>
              <path d="M200.455,212.725c2.11.715,4.36,1.381,6.674,1.77,1.161.207,2.359.402,3.572.529,1.206.108,2.44.182,3.701.222,1.251.034,2.494-.026,3.759-.104,1.261-.089,2.561-.155,3.84-.336,1.47-.235,2.959-.532,4.464-.871,1.483-.388,2.979-.826,4.495-1.284,1.126-.33,2.328-.785,3.552-1.286,1.221-.505,2.436-1.111,3.482-1.914-2.015-.737-4.853-.605-7.361-.579-1.484.039-2.996-.058-4.469-.084-1.472-.031-2.953-.062-4.467-.094-6.272-.037-12.717.033-19.156.536-1.776.092-3.527.4-5.307.641-.77.121-1.603.251-2.396.471,1.782.844,3.662,1.716,5.618,2.384Z" style="fill: #9d9fa2;"/>
            </g>
            <g>
              <path d="M182.868,212.735c1.479-.325,2.938-.721,4.342-1.276,1.409-.525,2.78-1.109,4.078-1.831l2.097-1.003c1.454-.745,2.854-1.569,4.206-2.397,1.33-.903,2.614-1.814,3.822-2.783,1.538-1.331,3.033-2.635,4.32-4.155.651-.741,1.27-1.49,1.85-2.245.563-.79,1.086-1.585,1.566-2.381.586-1.145,1.085-2.314,1.436-3.544.399-1.347.697-2.696.751-4.014.022-.825-.047-1.684-.339-2.428-1.05,1.013-2.193,1.907-3.272,2.915-1.117.947-2.241,1.902-3.352,2.901-1.51,1.463-2.961,3.043-4.508,4.528-3.981,3.922-8.168,7.752-12.544,11.554-1.149.974-2.263,2.044-3.277,3.082-1.02,1.064-1.994,2.234-3.39,3.089.738.049,1.472.005,2.214-.011Z" style="fill: #9d9fa2;"/>
              <path d="M177.257,217.233c3.798,2.348,8.188,4.355,13.064,5.531,2.428.61,4.912.937,7.502,1.262,1.477.093,2.986.129,4.52.129,1.532-.007,3.065-.131,4.632-.231,1.163-.063,2.427-.205,3.712-.428,1.28-.236,2.6-.5,3.778-1.04-1.77-1.191-4.547-1.743-6.967-2.268-2.861-.729-5.684-1.448-8.63-2.199-6.09-1.439-12.401-2.777-18.794-3.718-1.751-.268-3.529-.411-5.317-.56-.778-.054-1.618-.099-2.439-.073,1.543,1.243,3.176,2.451,4.941,3.595Z" style="fill: #9d9fa2;"/>
            </g>
          </g>
          <g>
            <path d="M21.669,128.781c.596-14.396,4.945-28.497,11.88-41.017.137-.25.347.04.243.24-5.92,11.307-9.805,23.71-10.887,36.403-.55,6.336-.47,12.741.324,19.041.804,6.296,2.47,12.478,4.948,18.32,4.886,11.657,13.107,21.736,22.914,29.649,9.842,7.92,21.305,13.794,33.413,17.411,6.823,2.021,13.846,3.354,20.934,3.975,4.076.33,8.171.404,12.259.232.051.275.104.549.154.825-9.844.714-19.831-.293-29.418-2.696-12.484-3.147-24.362-8.7-34.737-16.305-10.282-7.552-19.109-17.321-24.752-28.842-2.835-5.737-4.887-11.86-6.063-18.147-1.171-6.294-1.483-12.712-1.211-19.088Z" style="fill: #9d9fa2;"/>
            <g>
              <path d="M49.185,59.505c.705-.618,1.412-1.238,2.146-1.838.746-.615,1.444-1.151,2.346-1.759-.663,1.18-1.085,2.226-1.572,3.332-.457,1.085-.916,2.172-1.379,3.27-1.588,3.778-3.556,7.47-5.428,11.182-1.155,2.262-2.314,4.535-3.479,6.818-2.957,5.303-5.975,10.716-8.927,16.011-1.143,1.975-2.307,3.945-3.425,5.947-.667,1.004-1.305,2.002-2.029,2.894-.707,1.316-1.243,2.945-2.272,3.779-.26.211-.555-.085-.534-.446.192-3.958.693-7.95,1.623-11.923.913-3.933,2.216-7.827,3.828-11.609,1.631-3.859,3.544-7.64,5.851-11.199,2.281-3.515,4.957-6.733,7.929-9.658,1.704-1.678,3.52-3.223,5.322-4.8Z" style="fill: #9d9fa2;"/>
              <path d="M22.884,80.713c.236,3.082.484,6.113.608,9.274.255,6.476.427,13.281.346,19.907.004,1.814-.074,3.622-.177,5.444-.309,2.773-.696,5.53-1.229,8.279-.084-.034-.164-.085-.224-.157-.817-.974-1.41-2.157-1.998-3.442-.287-.642-.557-1.306-.818-1.978-.228-.675-.455-1.347-.677-2.004-.505-1.507-.954-3.083-1.271-4.694-.171-.808-.329-1.63-.479-2.463-.138-.83-.234-1.662-.339-2.509-.799-6.726-.611-13.949.718-21.191.278-1.441.551-2.921.925-4.36l.978-2.59c.358-.849.729-1.699,1.116-2.546.423-.954.91-1.871,1.385-2.799.824,2.238.946,5.136,1.136,7.829Z" style="fill: #9d9fa2;"/>
              <path d="M21.995,131.986c.023-1.718.182-3.443.424-5.145.329-1.697.636-3.384,1.179-5.009l.704-2.585c1.107-3.597,2.499-7.048,4.361-10.162,2.355-4.052,5.377-7.713,8.759-10.481,1.263-.869,2.504-1.667,3.866-2.294,1.479-.709,2.989-1.294,4.529-1.58.935-.18,1.916-.263,2.801-.065-1.983,2.784-3.823,5.627-5.714,8.466-.749.96-1.506,1.914-2.233,2.885l-1.129,1.45-1.085,1.478c-3.809,5.129-7.304,10.556-10.601,16.364-.426.76-.884,1.516-1.333,2.261-.428.746-.881,1.479-1.367,2.189-1.01,1.431-2,2.849-2.618,4.648-.196-.795-.376-1.601-.541-2.418Z" style="fill: #9d9fa2;"/>
              <path d="M18.49,141.044c-2.931-3.372-5.615-7.399-7.529-12.092-.966-2.33-1.684-4.774-2.363-7.326-.631-2.944-1.01-6.049-1.17-9.223-.094-1.182-.11-2.47-.062-3.795.046-1.325.182-2.681.557-3.937,1.41,1.615,2.286,4.327,3.144,6.684,1.095,2.832,2.22,5.505,3.355,8.333,2.288,5.881,4.586,11.936,6.545,18.094.274.843.52,1.697.737,2.559.215.863.494,1.727.693,2.598.183.758.382,1.576.482,2.392-1.474-1.299-2.952-2.712-4.389-4.287Z" style="fill: #9d9fa2;"/>
            </g>
            <g>
              <path d="M24.903,154.442c-.281-1.49-.456-2.997-.573-4.483-.04-1.504.027-2.999.136-4.45.026-.769.135-1.544.202-2.306.081-.806.174-1.602.278-2.389.115-.789.3-1.583.464-2.359.171-.778.354-1.545.548-2.3.211-.756.471-1.5.721-2.23,1.259-3.791,3.262-7.329,5.577-10.162.923-.917,1.873-1.762,2.877-2.495,1.09-.816,2.337-1.518,3.565-1.99.761-.289,1.582-.503,2.378-.47-.55,1.318-1.144,2.639-1.644,3.98l-.819,2.01c-.249.675-.51,1.35-.785,2.027-.482.931-.923,1.865-1.369,2.806-.438.941-.969,1.886-1.369,2.85-.54,1.249-1.167,2.511-1.698,3.788-.546,1.296-1.09,2.584-1.631,3.867-.516,1.289-1.029,2.573-1.541,3.851-.474,1.329-.945,2.653-1.415,3.972-.53,1.42-.914,2.803-1.534,4.156-.629,1.367-1.226,2.707-1.414,4.331-.328-.657-.646-1.325-.952-2.004Z" style="fill: #9d9fa2;"/>
              <path d="M25.102,165.773c-2.053-1.064-3.898-2.421-5.83-3.939-.973-.757-1.817-1.613-2.724-2.495-.873-.893-1.82-1.815-2.602-2.835-.784-1.011-1.561-2.062-2.329-3.152-.779-1.087-1.412-2.241-2.108-3.416-.375-.687-.74-1.39-1.098-2.106-.338-.718-.629-1.454-.935-2.199-.294-.755-.588-1.512-.884-2.271l-.43-1.159-.366-1.127c-.357-1.115-.753-2.351-1.074-3.64-.326-1.288-.472-2.639-.486-3.954,1.827,1.193,3.287,3.582,4.811,5.623,1.712,2.413,3.67,4.789,5.446,7.261,3.759,4.933,7.725,10.138,11.805,15.492.999,1.449,2.15,2.863,3.074,4.386.393.669.932,1.332,1.318,2.058-1.913-.674-3.739-1.516-5.59-2.526Z" style="fill: #9d9fa2;"/>
            </g>
            <g>
              <path d="M38.953,180.404c-1.079-1.337-2.139-2.704-2.978-4.215-.437-.743-.856-1.493-1.256-2.248-.361-.781-.7-1.568-1.023-2.354-.37-.814-.773-1.603-1.073-2.445-.678-1.751-1.333-3.482-1.746-5.283-.217-.894-.466-1.763-.61-2.662-.142-.9-.268-1.792-.376-2.675-.171-1.133-.185-2.307-.202-3.452-.011-1.147-.021-2.271.129-3.405.122-1.127.263-2.224.458-3.292.253-1.082.538-2.128.854-3.132.502-1.354,1.263-2.669,2.028-3.859.441-.666.875-1.285,1.379-1.896.515-.62,1.056-1.197,1.629-1.713.703-.632,1.495-1.205,2.352-1.494l-.151,2.49c-.08.856-.04,1.574-.085,2.374-.011.779-.105,1.577-.088,2.354.008.78,0,1.566-.024,2.36-.163,1.142-.143,2.243-.262,3.395-.127,1.156-.131,2.29-.168,3.457-.162,6.035.27,12.364,1.415,18.86.342,1.669.545,3.437.759,5.108.207,1.687.262,3.495,1.008,5.222-.678-.465-1.352-.949-1.972-1.495Z" style="fill: #9d9fa2;"/>
              <path d="M40.093,187.444c-2.216-.384-4.481-.955-6.756-1.747-2.231-.835-4.563-1.811-6.766-3.133-2.227-1.276-4.313-2.839-6.439-4.525-2.314-2.057-4.546-4.413-6.574-7.034-.383-.484-.785-.993-1.198-1.515-.379-.544-.762-1.113-1.13-1.702-.724-1.182-1.45-2.425-1.881-3.741,2.114.594,4.441,2.415,6.506,3.929,2.615,1.738,5.094,3.322,7.738,4.951,5.409,3.453,10.967,6.843,16.361,10.42.741.487,1.463,1.004,2.176,1.537.742.505,1.466,1.034,2.171,1.585.62.473,1.26,1.015,1.888,1.548-2.013-.045-3.995-.267-6.096-.574Z" style="fill: #9d9fa2;"/>
            </g>
            <g>
              <path d="M55.69,195.678c-1.148-.992-2.263-2.014-3.277-3.12-.986-1.142-1.932-2.292-2.768-3.502l-1.359-1.886c-1.894-2.636-3.408-5.47-4.531-8.323-.391-.903-.672-1.874-.95-2.818-.263-.954-.539-1.873-.702-2.833-.31-1.93-.571-3.757-.471-5.601.147-1.268.319-2.468.686-3.654.416-1.319.921-2.575,1.611-3.673.426-.675.93-1.322,1.594-1.785.37,1.279.683,2.603,1.072,3.912.442,1.282.743,2.658,1.218,3.967.224.991.447,1.975.669,2.956.251.999.502,1.995.753,2.99,1.395,5.205,3.225,10.494,5.338,15.852.526,1.435,1.094,2.799,1.491,4.225.202.716.388,1.443.626,2.171.249.713.56,1.413.987,2.112-.664-.316-1.339-.626-1.985-.989Z" style="fill: #9d9fa2;"/>
              <path d="M58.668,202.206c-2.268.253-4.531.203-6.939.093-1.185-.086-2.372-.241-3.592-.42-1.22-.179-2.458-.4-3.678-.724-1.207-.325-2.428-.682-3.663-1.071-1.206-.428-2.421-.896-3.649-1.391-1.416-.581-2.759-1.331-4.131-2.099-.684-.397-1.369-.796-2.057-1.196-.666-.444-1.335-.889-2.005-1.335-.981-.685-2.121-1.386-3.14-2.282-1.033-.88-2.04-1.853-2.875-2.915,2.229-.16,4.868.914,7.336,1.635,1.454.408,2.901.813,4.356,1.221,1.462.367,2.929.72,4.384,1.137,6.121,1.67,12.359,3.375,18.481,5.442,1.652.603,3.358,1.192,4.987,1.924.704.329,1.49.639,2.218,1.021-1.973.465-3.943.745-6.034.963Z" style="fill: #9d9fa2;"/>
            </g>
            <g>
              <path d="M77.16,207.21c-1.342-.544-2.619-1.244-3.844-2.014-.613-.383-1.219-.771-1.803-1.189-.576-.436-1.139-.884-1.687-1.342l-1.789-1.35c-1.214-1.013-2.392-2.038-3.497-3.114-1.076-1.124-2.11-2.248-3.049-3.428-1.174-1.592-2.32-3.15-3.199-4.893-.453-.854-.87-1.711-1.248-2.567-.357-.88-.662-1.773-.929-2.652-.278-1.258-.474-2.511-.491-3.811-.036-1.426.033-2.832.335-4.17.198-.831.506-1.691.994-2.402.734,1.14,1.606,2.18,2.376,3.324.814,1.106,1.669,2.191,2.46,3.362,1.091,1.667,2.064,3.49,3.193,5.216,2.851,4.568,5.967,9.154,9.282,13.824.878,1.199,1.717,2.451,2.434,3.763.737,1.288,1.423,2.64,2.55,3.8-.695-.103-1.391-.222-2.089-.358Z" style="fill: #9d9fa2;"/>
              <path d="M81.95,212.725c-2.11.715-4.36,1.381-6.674,1.77-1.161.207-2.359.402-3.572.529-1.206.108-2.44.182-3.701.222-1.251.034-2.494-.026-3.759-.104-1.261-.089-2.561-.155-3.84-.336-1.47-.235-2.959-.532-4.464-.871-1.483-.388-2.979-.826-4.495-1.284-1.126-.33-2.328-.785-3.551-1.286-1.221-.505-2.437-1.111-3.482-1.914,2.015-.737,4.853-.605,7.361-.579,1.484.039,2.996-.058,4.469-.084,1.472-.031,2.953-.062,4.467-.094,6.272-.037,12.717.033,19.156.536,1.776.092,3.527.4,5.307.641.77.121,1.604.251,2.396.471-1.782.844-3.662,1.716-5.618,2.384Z" style="fill: #9d9fa2;"/>
            </g>
            <g>
              <path d="M99.537,212.735c-1.479-.325-2.938-.721-4.341-1.276-1.409-.525-2.78-1.109-4.079-1.831l-2.097-1.003c-1.454-.745-2.854-1.569-4.206-2.397-1.33-.903-2.614-1.814-3.822-2.783-1.538-1.331-3.033-2.635-4.32-4.155-.651-.741-1.27-1.49-1.85-2.245-.563-.79-1.086-1.585-1.566-2.381-.586-1.145-1.085-2.314-1.436-3.544-.399-1.347-.697-2.696-.751-4.014-.022-.825.047-1.684.339-2.428,1.05,1.013,2.193,1.907,3.272,2.915,1.117.947,2.241,1.902,3.352,2.901,1.51,1.463,2.961,3.043,4.508,4.528,3.981,3.922,8.169,7.752,12.544,11.554,1.149.974,2.263,2.044,3.277,3.082,1.02,1.064,1.994,2.234,3.39,3.089-.738.049-1.472.005-2.214-.011Z" style="fill: #9d9fa2;"/>
              <path d="M105.149,217.233c-3.798,2.348-8.188,4.355-13.064,5.531-2.428.61-4.912.937-7.502,1.262-1.477.093-2.986.129-4.52.129-1.532-.007-3.064-.131-4.632-.231-1.163-.063-2.427-.205-3.712-.428-1.28-.236-2.6-.5-3.778-1.04,1.77-1.191,4.547-1.743,6.967-2.268,2.861-.729,5.684-1.448,8.63-2.199,6.09-1.439,12.401-2.777,18.794-3.718,1.751-.268,3.53-.411,5.318-.56.778-.054,1.618-.099,2.439-.073-1.543,1.243-3.176,2.451-4.941,3.595Z" style="fill: #9d9fa2;"/>
            </g>
          </g>
        </g>
        <g>
          <g>
            <g>
              <g>
                <path d="M178.246,179.281c.564.26,1.092.503,1.63.752.541.24,1.09.462,1.714.695.623.231,1.317.466,2.139.707.411.12.855.242,1.338.365.243.059.495.121.756.184.26.053.53.108.81.165.324.063.722.092,1.141.081l.024.029c.146,0,.282-.017.405-.052l.038-.004c.093-.009.186-.02.279-.033,1.314-.168,1.962-.428,1.962-.428l.061.084c-.744.821-1.139,1.913-1.178,3.078-.038,1.164.28,2.403,1.013,3.483.828,1.223,2.043,2.002,3.37,2.247.663.123,1.352.113,2.025-.035.336-.074.669-.183.991-.327.319-.148.62-.342.909-.566,1.153-.903,1.827-2.189,1.939-3.529.099-1.36-.341-2.748-1.303-3.868-.835-.974-1.916-1.594-3.018-1.86-.548-.128-1.115-.183-1.668-.149-.552.036-1.087.163-1.584.388l-.089-.094s.36-.462.823-1.475l-.031-.05c.329-.655.505-1.433.542-2.006.071-1.16.091-2.133.083-2.982-.004-.424-.016-.817-.034-1.187-.022-.374-.053-.729-.086-1.063-.134-1.338-.321-2.403-.516-3.61,0,0-.103-.478-.242-.983-.139-.505-.315-1.036-.447-1.16-.303-.283-1.083-.389-1.229.112-.069.232-.004,1.631.016,3.431.012.9-.024,1.86-.064,2.834-.044.969-.111,1.932-.199,2.774l-.138-.242c-.213-.371-3.24-4.981-6.47-9.582-3.215-4.615-6.642-9.21-7.147-9.993,0,0-.253-.284-.413-.33-.609-.172-1.223.056-.454,1.387.137.238.623,1.083,1.272,2.259.654,1.182,1.452,2.676,2.236,4.216,1.579,3.077,3.078,6.364,3.493,7.3l-.241.19c-.396-.326-1.276-1.046-2.393-2.007-1.116-.957-2.447-2.13-3.729-3.302-2.572-2.341-4.924-4.693-5.306-5.082-.269-.271-.492-.439-.678-.532-.189-.096-.339-.115-.456-.081-.233.07-.331.357-.331.668,0,.165.208.484.208.484.624.698,4.16,5.285,7.729,9.651,3.545,4.362,7.097,8.499,7.264,8.702-.411-.068-.841-.146-1.279-.232-.439-.088-.897-.2-1.346-.307-.9-.218-1.785-.452-2.573-.669-1.568-.417-2.795-.843-3.022-.836-.526.001-.637.769-.441,1.142.084.156.552.471,1.005.743.453.272.89.502.89.502Z" style="fill: #d09670;"/>
                <path d="M193.752,167.219c1.203.2,2.263.391,3.597.53.663.065,1.415.133,2.259.144.846.012,1.816-.005,2.973-.072.333-.019.729-.09,1.137-.204l.031.022c.142-.036.271-.085.383-.15l.036-.014c.089-.032.177-.065.265-.1,1.209-.513,1.754-.943,1.754-.943l.08.066c-.244.501-.387,1.043-.434,1.604-.046.563-.024,1.121.106,1.688.254,1.127.874,2.236,1.859,3.092,1.115.968,2.497,1.416,3.854,1.322.339-.023.677-.079,1.005-.17.322-.096.636-.226.937-.388.602-.325,1.151-.78,1.602-1.356.226-.288.416-.592.57-.906.077-.158.147-.317.206-.479.055-.166.101-.333.139-.501.15-.674.162-1.365.041-2.029-.24-1.332-1.015-2.553-2.232-3.389-1.057-.726-2.268-1.052-3.412-1.033-.572.01-1.128.108-1.644.29-.258.091-.506.204-.74.338-.118.067-.232.139-.342.217-.115.074-.226.154-.334.239l-.111-.068s.059-.133.144-.402c.076-.276.173-.691.256-1.247l-.043-.04c.127-.734.121-1.514.013-2.076-.108-.565-.218-1.082-.327-1.56-.12-.485-.242-.931-.361-1.343-.238-.825-.471-1.522-.701-2.148-.465-1.253-.889-2.215-1.417-3.349,0,0-.228-.439-.499-.894-.27-.456-.583-.927-.739-1.011-.372-.199-1.137-.091-1.139.436-.004.121.115.524.279,1.104.16.582.371,1.348.605,2.198.231.859.476,1.817.697,2.775.196.94.367,1.88.488,2.71l-.195-.198c-.3-.303-4.4-3.972-8.695-7.581-4.272-3.617-8.799-7.197-9.488-7.824,0,0-.317-.21-.482-.211-.312-.003-.592.098-.669.327-.083.225.05.588.589,1.13.387.385,2.726,2.759,5.052,5.352,2.349,2.591,4.613,5.359,5.252,6.156l-.19.242c-.932-.42-4.202-1.941-7.262-3.539-3.09-1.602-5.99-3.288-6.459-3.566-1.322-.777-1.55-.16-1.381.452.046.161.328.416.328.416.778.51,5.364,4.021,9.926,7.313,4.549,3.305,9.06,6.401,9.273,6.552-.839.072-1.762.123-2.675.155-.458.014-.907.031-1.355.031-.449-.005-.886-.01-1.302-.015-1.653-.029-2.911-.087-3.13-.023-.492.153-.42.904-.131,1.217.121.13.658.316,1.169.466.505.144.981.247.981.247Z" style="fill: #de9d64;"/>
                <path d="M205.615,151.561c.617-.056,1.194-.109,1.783-.163.297-.033.596-.066.904-.1.306-.039.614-.088.942-.143,1.307-.225,2.865-.563,5.085-1.278.311-.107.669-.282,1.026-.501l.035.013c.125-.073.235-.156.323-.248l.031-.023c.076-.055.151-.11.225-.168,1.05-.804,1.479-1.355,1.479-1.355l.094.043c-.231,1.086-.025,2.232.525,3.265.274.515.638,1.003,1.074,1.431.432.426.945.797,1.531,1.082.663.323,1.361.506,2.052.551.684.042,1.362-.055,1.996-.281,1.263-.451,2.374-1.415,2.948-2.765.545-1.363.475-2.823-.09-4.04-.276-.607-.695-1.163-1.215-1.625-.518-.462-1.136-.83-1.832-1.076-1.213-.429-2.446-.421-3.544-.105-1.111.314-2.073.943-2.704,1.832l-.124-.037s.079-.582-.031-1.694l-.052-.028c-.058-.739-.245-1.484-.515-2.006-1.046-2.084-1.887-3.429-2.64-4.517-.786-1.094-1.489-1.925-2.266-2.875,0,0-.33-.364-.706-.732-.375-.368-.795-.741-.968-.782-.411-.095-1.13.205-1.004.713.029.118.234.472.548.991.159.26.342.562.544.893.203.333.429.699.641,1.081.436.767.909,1.624,1.36,2.489.225.432.445.865.651,1.287.102.213.202.421.299.624.088.203.173.401.255.591l-.238-.14c-.185-.106-1.499-.78-3.407-1.724-1.915-.947-4.424-2.158-6.973-3.349-5.094-2.395-10.363-4.666-11.193-5.092,0,0-.361-.12-.522-.08-.609.155-1.02.658.314,1.427.236.137,1.088.629,2.229,1.321,1.137.689,2.577,1.587,4.03,2.532,2.909,1.88,5.854,3.984,6.682,4.59l-.112.286c-1.01-.165-4.581-.797-7.964-1.558-3.393-.748-6.59-1.612-7.126-1.764-1.485-.413-1.561.231-1.247.774.084.143.422.316.422.316.887.294,6.234,2.51,11.501,4.518,5.268,2.028,10.402,3.843,10.647,3.934-.765.299-1.674.573-2.554.836-.886.261-1.766.501-2.555.706-.78.211-1.507.368-2.045.496-.539.127-.901.222-1,.28-.453.265-.165.987.192,1.213.15.094.711.133,1.238.142.527.01,1.019-.009,1.019-.009Z" style="fill: #f2c8aa;"/>
                <path d="M213.047,133.375c1.16-.424,2.149-.795,3.371-1.343,1.207-.556,2.678-1.277,4.571-2.558.276-.184.58-.445.872-.748l.037.004c.104-.103.19-.211.252-.323l.024-.03c.06-.072.119-.146.177-.22.407-.523.691-.945.851-1.238.159-.293.221-.454.221-.454l.102.017c.056.558.184,1.096.408,1.603.226.507.544.984.94,1.41.791.85,1.888,1.502,3.169,1.749,1.45.28,2.864-.027,3.983-.791.559-.381,1.044-.875,1.42-1.456.379-.58.598-1.254.697-1.979.094-.726.032-1.437-.159-2.094-.095-.328-.224-.643-.381-.94-.159-.297-.363-.577-.583-.834-.888-1.032-2.179-1.702-3.651-1.815-1.279-.099-2.484.226-3.453.816-.49.296-.899.66-1.271,1.075-.368.415-.659.883-.855,1.394l-.13-.003s-.068-.581-.451-1.625l-.057-.013c-.252-.698-.67-1.372-1.047-1.804-1.541-1.738-2.661-2.816-3.722-3.673-1.04-.852-1.924-1.473-2.915-2.189,0,0-.41-.266-.865-.525-.455-.259-.954-.51-1.132-.506-.422.014-1.044.49-.795.948.115.213,1.148,1.158,2.434,2.417.161.158.325.32.493.485.16.167.322.336.486.507.326.344.657.7.983,1.058.651.716,1.282,1.444,1.812,2.103l-.268-.074c-.413-.112-5.81-1.233-11.345-2.205-5.534-.992-11.203-1.82-12.113-2.018,0,0-.38-.022-.526.058-.554.309-.83.905.652,1.302.265.072,1.205.326,2.494.699,1.283.372,2.943.87,4.575,1.403,3.286,1.059,6.665,2.324,7.618,2.694l-.039.305c-1.017.103-4.575.431-8.071.572-3.481.159-6.814.154-7.361.148-1.528-.01-1.4.639-.978,1.076.116.115.488.195.488.195.935.054,6.695.807,12.272,1.369,5.586.582,11.034,1.001,11.294,1.026-.684.484-1.445.993-2.219,1.478-.797.48-1.595.938-2.312,1.34-1.438.804-2.533,1.388-2.713,1.547-.377.371.081.991.484,1.117.17.052.726-.055,1.242-.182.515-.126.99-.271.99-.271Z" style="fill: #ffe3cb;"/>
                <path d="M160.15,186.928c.944.781,1.769,1.481,2.857,2.275.548.405,1.151.796,1.88,1.234.729.436,1.581.911,2.619,1.436.299.151.679.289,1.09.396l.016.034c.142.042.276.055.404.052l.037.005c.092.014.184.026.277.037,1.306.159,1.996.064,1.996.064l.037.097c-.928.612-1.58,1.599-1.927,2.7-.345,1.098-.363,2.367.064,3.6.483,1.396,1.459,2.476,2.687,3.077,1.212.57,2.668.641,4.032.099.34-.138.661-.298.949-.502.287-.206.549-.438.783-.692.468-.507.825-1.098,1.053-1.732.458-1.271.397-2.713-.242-4.044-.555-1.156-1.444-2.044-2.448-2.6-1.006-.555-2.126-.779-3.196-.583l-.062-.114s.464-.363,1.167-1.238l-.017-.056c.478-.57.864-1.246,1.051-1.785.092-.271.18-.532.265-.783.077-.258.151-.507.222-.746.138-.48.256-.925.359-1.341.206-.832.352-1.549.466-2.204.113-.657.197-1.244.263-1.83.056-.59.112-1.169.171-1.787,0,0,.021-.493.014-1.021-.007-.529-.043-1.091-.136-1.242-.224-.358-.942-.648-1.208-.194-.062.105-.165.504-.307,1.098-.137.602-.34,1.349-.566,2.212-.229.857-.496,1.807-.783,2.744-.073.234-.147.468-.219.698-.079.224-.157.445-.233.663-.157.435-.315.853-.47,1.241l-.07-.268c-.109-.412-1.834-5.633-3.76-10.897-1.917-5.292-4.051-10.633-4.338-11.522,0,0-.171-.34-.313-.424-.54-.319-1.176-.227-.787,1.233.144.526.989,3.744,1.712,7.146.365,1.699.706,3.441.969,4.888.263,1.444.441,2.572.522,3.076l-.286.112c-.599-.83-2.678-3.785-4.533-6.703-.931-1.454-1.817-2.899-2.505-4.061-.686-1.155-1.168-2.002-1.304-2.24-.758-1.337-1.262-.924-1.421-.312-.041.162.076.523.076.523.42.832,2.639,6.169,4.95,11.303,2.293,5.139,4.659,10.077,4.768,10.314-.765-.361-1.592-.782-2.401-1.214-.404-.216-.804-.436-1.191-.652-.386-.215-.758-.426-1.115-.646-1.42-.861-2.483-1.548-2.705-1.603-.506-.127-.81.593-.718,1.005.04.173.409.594.775.97.365.376.726.707.726.707Z" style="fill: #a87254;"/>
                <path d="M140.691,189.621c.71.991,1.325,1.875,2.171,2.915.423.518.906,1.085,1.496,1.706.59.604,1.288,1.276,2.153,2.044.249.221.579.45.948.656l.006.037c.126.074.252.131.377.163l.035.016c.085.04.171.079.258.115.611.275,1.088.398,1.413.482.325.08.496.1.496.1l.01.103c-.527.181-1.009.479-1.441.828-.432.345-.81.773-1.118,1.262-.617.978-.962,2.203-.869,3.505.104,1.473.765,2.764,1.791,3.655.256.222.534.42.831.589.297.171.611.31.938.402.655.192,1.365.255,2.091.162.726-.092,1.398-.331,1.984-.681.585-.356,1.08-.854,1.465-1.409.771-1.119,1.086-2.535.815-3.986-.235-1.261-.861-2.344-1.684-3.133-.826-.793-1.844-1.265-2.934-1.406l-.031-.126s.135-.053.386-.185c.25-.133.616-.335,1.066-.681l-.002-.059c.608-.435,1.155-.996,1.475-1.473.644-.962,1.153-1.779,1.569-2.522.413-.758.74-1.42,1.019-2.029.556-1.218.928-2.227,1.365-3.363,0,0,.151-.461.279-.982.13-.517.24-1.074.189-1.244-.124-.407-.737-.854-1.114-.492-.176.164-.822,1.397-1.708,2.954-.874,1.585-2.035,3.354-3.037,4.719l.002-.278c.002-.427-.307-5.926-.798-11.519-.472-5.601-1.136-11.273-1.184-12.219,0,0-.076-.373-.191-.489-.44-.453-1.086-.579-1.087.954.002.547-.017,3.887-.202,7.373-.087,1.749-.217,3.484-.341,4.943-.124,1.453-.243,2.602-.296,3.109l-.305.039c-.363-.96-1.599-4.323-2.635-7.635-1.054-3.329-1.914-6.557-2.049-7.088-.387-1.483-.984-1.205-1.297-.649-.082.145-.063.523-.063.523.191.917.953,6.635,1.854,12.187.883,5.551,1.885,10.928,1.928,11.185-1.292-1.085-2.746-2.431-3.892-3.646-1.149-1.188-1.998-2.117-2.199-2.226-.456-.239-.936.349-.952.771-.006.176.242.691.499,1.156.256.455.519.866.519.866Z" style="fill: #9b7351;"/>
              </g>
              <g>
                <path d="M75.377,152.803c-.528,1.133-.953,2.095-1.417,3.349-.229.626-.462,1.322-.701,2.148-.119.413-.24.859-.361,1.343-.109.477-.219.994-.327,1.56-.062.325-.09.724-.078,1.145l-.029.024c0,.146.017.283.053.406l.004.038c.009.094.02.187.034.28.085.657.193,1.151.281,1.476.097.319.168.476.168.476l-.084.061c-.437-.352-.902-.644-1.425-.836-.52-.195-1.084-.302-1.665-.318-1.162-.033-2.396.292-3.472,1.031-1.217.836-1.992,2.057-2.232,3.389-.121.665-.109,1.355.041,2.029.038.168.084.336.139.501.059.162.128.322.206.479.155.314.345.619.57.906.451.576,1,1.031,1.602,1.356.301.162.615.292.936.388.328.091.667.146,1.005.17,1.357.094,2.74-.354,3.854-1.322.969-.841,1.584-1.927,1.846-3.033.133-.556.166-1.108.126-1.659-.037-.553-.165-1.089-.392-1.587l.093-.09s.462.359,1.473.819l.05-.031c.679.307,1.447.488,2.02.522,1.157.067,2.127.083,2.973.072.844-.011,1.596-.079,2.259-.144,1.334-.139,2.394-.33,3.597-.53,0,0,.475-.103.981-.247.511-.15,1.048-.337,1.169-.466.289-.313.36-1.064-.131-1.217-.231-.069-1.626,0-3.42.028-.446.005-.926.016-1.401.007-.473-.01-.958-.025-1.442-.045-.966-.04-1.926-.104-2.766-.19l.241-.139c.37-.215,4.957-3.268,9.535-6.525,4.591-3.242,9.162-6.695,9.941-7.204,0,0,.283-.255.328-.416.17-.612-.058-1.228-1.382-.452-.468.275-3.376,1.963-6.461,3.556-3.062,1.595-6.336,3.112-7.268,3.531l-.19-.242c.32-.395,1.048-1.29,1.986-2.403.932-1.109,2.113-2.46,3.275-3.748,2.329-2.59,4.67-4.96,5.057-5.344.54-.541.672-.903.59-1.129-.07-.233-.355-.331-.666-.329-.164.002-.482.211-.482.211-.346.317-1.663,1.363-3.436,2.783-1.775,1.421-3.999,3.217-6.159,5.003-4.335,3.569-8.458,7.153-8.657,7.321.14-.829.296-1.718.512-2.621.215-.903.447-1.792.662-2.583.216-.783.409-1.482.556-2.012.152-.531.256-.896.253-1.011-.002-.527-.768-.635-1.14-.436-.156.085-.469.556-.739,1.011-.271.455-.499.894-.499.894Z" style="fill: #d09670;"/>
                <path d="M87.547,168.224c-.195,1.207-.382,2.271-.516,3.61-.033.334-.064.689-.086,1.063-.017.369-.029.762-.034,1.187-.009.849.012,1.822.083,2.982.02.334.093.731.208,1.139l-.022.031c.036.144.087.271.156.378l.014.035c.034.086.07.172.108.257.521,1.206.95,1.754.95,1.754l-.065.081c-.5-.244-1.042-.385-1.601-.431-.56-.046-1.14.006-1.697.129-1.122.258-2.227.883-3.076,1.874-.961,1.121-1.402,2.508-1.303,3.868.112,1.339.787,2.625,1.939,3.529.289.224.59.418.909.566.322.144.655.253.991.327.673.148,1.362.158,2.025.035,1.327-.245,2.542-1.025,3.37-2.247.72-1.062,1.039-2.276,1.015-3.423-.026-1.148-.397-2.228-1.104-3.053l.067-.111s.547.218,1.656.383l.04-.043c.733.126,1.511.118,2.07.008.28-.057.55-.112.81-.165.262-.064.513-.125.757-.184.484-.123.927-.245,1.338-.365.822-.241,1.516-.476,2.139-.707.624-.234,1.173-.455,1.714-.695.538-.248,1.067-.492,1.63-.752,0,0,.437-.23.89-.502.453-.272.921-.586,1.005-.743.197-.373.086-1.14-.44-1.142-.243-.003-1.596.463-3.299.912-.856.234-1.81.481-2.765.705-.24.055-.478.109-.713.163-.234.045-.464.089-.69.132-.454.084-.895.158-1.309.22l.197-.196c.301-.302,3.942-4.422,7.521-8.736,3.607-4.321,7.147-8.854,7.771-9.549,0,0,.208-.319.209-.483.003-.628-.397-1.131-1.463-.06-.382.389-2.738,2.739-5.314,5.077-1.284,1.172-2.617,2.343-3.735,3.299-1.114.952-1.999,1.676-2.394,2l-.242-.19c.415-.936,1.918-4.22,3.501-7.294.394-.77.79-1.528,1.168-2.239.384-.718.75-1.389,1.075-1.976.65-1.175,1.137-2.019,1.274-2.257.77-1.329.156-1.557-.454-1.386-.161.046-.414.33-.414.33-.506.782-3.991,5.393-7.256,9.978-3.278,4.573-6.348,9.106-6.498,9.319-.075-.841-.13-1.767-.165-2.683-.031-.92-.061-1.81-.04-2.649.023-1.658.078-2.92.012-3.14-.146-.501-.926-.395-1.229-.112-.131.124-.308.655-.446,1.16-.139.504-.242.983-.242.983Z" style="fill: #de9d64;"/>
                <path d="M103.274,179.995c.059.618.115,1.197.171,1.787.066.587.15,1.174.263,1.83.114.655.26,1.372.466,2.204.103.416.221.861.359,1.341.071.24.145.488.222.746.085.252.173.512.265.783.109.312.284.67.505,1.027l-.013.035c.074.125.157.235.249.323l.023.031c.055.076.111.151.169.225.808,1.05,1.36,1.48,1.36,1.48l-.042.095c-1.085-.229-2.228-.021-3.255.532-1.026.554-1.936,1.452-2.501,2.629-.639,1.331-.7,2.773-.242,4.044.228.635.585,1.226,1.053,1.732.234.254.496.486.783.692.288.205.609.364.949.502,1.364.542,2.82.471,4.032-.099,1.228-.601,2.205-1.682,2.687-3.077.42-1.212.409-2.458.081-3.543-.331-1.084-.956-2.067-1.849-2.692l.036-.125s.582.078,1.691-.033l.027-.052c.733-.046,1.492-.28,2.007-.541,1.039-.525,1.89-.999,2.619-1.436.729-.438,1.333-.828,1.881-1.234,1.089-.794,1.914-1.494,2.857-2.275,0,0,.361-.331.726-.707.366-.376.735-.797.775-.97.093-.412-.212-1.132-.718-1.005-.235.058-1.41.824-2.954,1.754-1.525.889-3.426,1.901-4.976,2.601l.14-.241c.213-.371,2.668-5.311,5.01-10.423,2.361-5.106,4.597-10.385,5.018-11.217,0,0,.118-.362.077-.523-.158-.611-.662-1.023-1.422.313-.268.474-1.948,3.4-3.816,6.295-1.859,2.916-3.942,5.869-4.542,6.699l-.286-.112c.083-.506.26-1.627.528-3.079.265-1.446.608-3.187.975-4.885.727-3.4,1.577-6.616,1.721-7.141.099-.369.132-.646.118-.853-.012-.212-.071-.351-.159-.434-.177-.166-.474-.107-.743.051-.142.084-.313.424-.313.424-.289.89-2.472,6.255-4.448,11.538-1.984,5.258-3.769,10.411-3.859,10.658-.148-.389-.297-.8-.444-1.221-.145-.423-.279-.876-.413-1.317-.265-.887-.508-1.77-.717-2.56-.428-1.565-.68-2.837-.8-3.032-.266-.454-.985-.164-1.208.194-.093.151-.129.714-.136,1.242-.007.528.014,1.022.014,1.022Z" style="fill: #f2c8aa;"/>
                <path d="M121.508,187.309c.437,1.136.809,2.145,1.365,3.363.279.609.605,1.271,1.019,2.029.417.743.925,1.56,1.569,2.522.186.276.448.58.753.872l-.003.037c.103.104.212.19.324.252l.03.024c.073.06.146.119.221.176.262.203.499.381.708.513.21.131.39.235.537.314.294.158.455.221.455.221l-.016.102c-1.114.112-2.158.583-3.005,1.376-.845.792-1.489,1.891-1.728,3.174-.271,1.451.044,2.867.815,3.986.385.555.88,1.053,1.465,1.409.586.35,1.258.588,1.984.681.726.092,1.436.03,2.092-.162.327-.092.642-.23.938-.402.296-.169.575-.366.831-.589,1.026-.89,1.687-2.182,1.791-3.655.091-1.279-.241-2.484-.838-3.454-.299-.485-.665-.911-1.083-1.259-.419-.344-.887-.653-1.399-.842l.002-.13s.144-.017.42-.083c.138-.033.308-.077.509-.138.201-.057.432-.138.693-.248l.013-.057c.698-.269,1.367-.675,1.797-1.057.865-.767,1.563-1.439,2.153-2.044.59-.621,1.073-1.188,1.496-1.706.845-1.041,1.46-1.924,2.171-2.915,0,0,.263-.411.519-.866.256-.465.505-.979.499-1.156-.017-.422-.497-1.01-.953-.771-.212.115-1.15,1.148-2.401,2.434-.316.321-.649.658-.987,1.001-.342.33-.695.658-1.052.985-.712.652-1.436,1.283-2.09,1.814l.072-.268c.11-.413,1.196-5.813,2.133-11.351.956-5.536,1.749-11.207,1.941-12.117,0,0,.02-.38-.062-.527-.312-.555-.909-.833-1.297.65-.137.53-1,3.759-2.059,7.087-1.039,3.302-2.281,6.673-2.645,7.63l-.305-.039c-.052-.507-.17-1.656-.292-3.109-.122-1.457-.249-3.195-.333-4.947-.18-3.485-.195-6.824-.193-7.371.002-1.535-.646-1.402-1.085-.959-.115.116-.192.489-.192.489-.051.949-.757,6.667-1.287,12.266-.547,5.593-.932,11.047-.955,11.307-.488-.683-1-1.45-1.49-2.218-.247-.378-.484-.775-.71-1.167-.223-.388-.44-.767-.647-1.127-.812-1.436-1.399-2.547-1.565-2.702-.376-.362-.99.086-1.114.492-.051.17.06.727.189,1.244.128.521.279.982.279.982Z" style="fill: #ffe3cb;"/>
                <path d="M67.623,134.752c-.778.95-1.48,1.781-2.266,2.875-.753,1.088-1.594,2.433-2.64,4.517-.153.301-.289.682-.376,1.087l-.034.016c-.035.14-.052.276-.048.404l-.005.038c-.014.092-.026.185-.036.278-.157,1.309-.061,2.001-.061,2.001l-.096.037c-.618-.924-1.585-1.579-2.711-1.91-1.115-.333-2.368-.349-3.603.088-.696.246-1.314.614-1.832,1.076-.52.462-.939,1.018-1.215,1.625-.564,1.217-.634,2.677-.089,4.04.574,1.35,1.686,2.314,2.948,2.765.634.225,1.312.322,1.996.281.69-.045,1.389-.228,2.052-.551.577-.281,1.082-.644,1.509-1.06.43-.418.793-.895,1.068-1.4.552-1.011.773-2.135.577-3.206l.113-.063s.363.463,1.238,1.163l.056-.017c.569.476,1.245.859,1.782,1.044,2.221.715,3.779,1.054,5.085,1.278.328.055.635.104.942.143.309.034.608.067.904.1.589.054,1.166.106,1.783.163,0,0,.492.019,1.019.009.527-.009,1.088-.048,1.238-.142.356-.226.645-.948.191-1.213-.105-.062-.503-.163-1.095-.302-.298-.069-.642-.149-1.022-.237-.376-.091-.776-.197-1.205-.309-.855-.226-1.802-.488-2.738-.771-.467-.142-.933-.288-1.379-.436-.434-.155-.851-.311-1.239-.464l.268-.072c.205-.057,1.61-.523,3.619-1.22,2.007-.696,4.619-1.63,7.263-2.614,5.284-1.953,10.602-4.117,11.489-4.409,0,0,.339-.173.422-.316.314-.542.238-1.186-1.248-.775-.527.148-3.733,1.011-7.126,1.754-3.383.756-6.962,1.386-7.964,1.546l-.112-.286c.828-.605,3.775-2.704,6.685-4.58,1.453-.943,2.894-1.838,4.031-2.526,1.151-.693,1.997-1.182,2.235-1.319,1.334-.767.923-1.271.313-1.426-.161-.04-.522.079-.522.079-.831.425-6.157,2.68-11.279,5.025-5.127,2.327-10.056,4.727-10.288,4.836.712-1.538,1.679-3.317,2.485-4.724.845-1.424,1.541-2.495,1.592-2.717.127-.507-.593-.808-1.004-.713-.173.041-.593.413-.968.782-.375.368-.706.732-.706.732Z" style="fill: #a87254;"/>
                <path d="M64.811,115.311c-.991.717-1.874,1.337-2.914,2.189-1.062.857-2.181,1.935-3.722,3.673-.221.251-.449.582-.655.952l-.037.006c-.074.127-.13.253-.163.378l-.016.035c-.04.086-.079.172-.115.259-.478,1.221-.557,1.912-.557,1.912l-.103.011c-.185-.526-.471-1.008-.837-1.436-.375-.427-.782-.804-1.278-1.11-.978-.611-2.203-.949-3.504-.848-1.472.113-2.763.783-3.651,1.815-.22.257-.424.537-.583.834-.157.297-.285.612-.381.94-.191.657-.252,1.368-.159,2.094.1.725.318,1.399.697,1.979.376.581.86,1.075,1.42,1.456,1.119.765,2.534,1.071,3.983.791,1.259-.243,2.341-.877,3.128-1.705.394-.415.714-.88.945-1.375.234-.496.363-1.021.433-1.567l.126-.031s.053.135.185.385c.133.249.369.609.705,1.059l.059-.002c.435.606.996,1.15,1.473,1.468,1.893,1.281,3.364,2.003,4.571,2.558,1.222.548,2.211.919,3.371,1.343,0,0,.475.145.99.271.516.127,1.072.234,1.242.182.403-.125.86-.745.484-1.116-.192-.168-1.405-.812-2.965-1.689-.772-.439-1.646-.933-2.462-1.452-.808-.52-1.599-1.058-2.277-1.554h.278c.427,0,5.92-.344,11.506-.87,2.796-.258,5.608-.552,7.849-.8,2.247-.248,3.907-.442,4.376-.465,0,0,.372-.079.488-.194.421-.436.559-1.087-.974-1.077-.546.005-3.881.006-7.363-.157-1.742-.077-3.518-.189-4.961-.306-1.451-.115-2.6-.227-3.106-.277l-.039-.305c.953-.368,4.332-1.629,7.619-2.683,3.305-1.073,6.549-1.955,7.075-2.094,1.483-.396,1.206-.992.652-1.301-.146-.081-.526-.059-.526-.059-.91.196-6.632.995-12.18,1.931-5.549.918-10.922,1.954-11.179,1.999.539-.648,1.152-1.341,1.773-2.013.31-.336.622-.667.927-.986.302-.319.628-.627.921-.916,1.187-1.157,2.117-2.012,2.226-2.213.249-.458-.373-.934-.795-.948-.177-.005-.677.247-1.132.506-.455.259-.865.524-.865.524Z" style="fill: #9b7351;"/>
              </g>
            </g>
            <g>
              <g>
                <path d="M102.032,49.28c-.564-.26-1.092-.503-1.63-.752-.541-.24-1.09-.462-1.714-.695-.623-.231-1.317-.466-2.139-.707-.411-.12-.855-.242-1.338-.365-.243-.059-.495-.121-.757-.184-.26-.053-.53-.108-.81-.166-.324-.063-.722-.092-1.141-.081l-.024-.029c-.145,0-.282.017-.405.052l-.038.004c-.093.009-.186.02-.279.033-1.314.168-1.962.428-1.962.428l-.06-.084c.744-.821,1.139-1.913,1.178-3.078.038-1.164-.28-2.403-1.013-3.483-.828-1.222-2.043-2.002-3.37-2.247-.663-.123-1.352-.113-2.025.035-.336.074-.669.183-.991.327-.319.148-.62.342-.909.566-1.153.903-1.827,2.189-1.939,3.529-.099,1.36.341,2.748,1.303,3.868.835.974,1.916,1.594,3.018,1.86.547.128,1.115.183,1.668.149.552-.035,1.087-.163,1.584-.388l.09.094s-.36.462-.823,1.475l.031.05c-.329.655-.505,1.433-.542,2.007-.071,1.16-.091,2.133-.083,2.982.005.424.016.817.034,1.186.022.374.053.728.086,1.063.134,1.338.321,2.402.516,3.61,0,0,.103.478.242.983.139.505.315,1.036.446,1.16.303.283,1.083.389,1.229-.112.069-.232.004-1.631-.016-3.431-.012-.9.024-1.86.064-2.834.044-.969.111-1.932.199-2.774l.138.242c.213.371,3.24,4.981,6.47,9.582,3.216,4.615,6.642,9.21,7.147,9.993,0,0,.253.284.413.33.609.172,1.223-.056.454-1.387-.137-.238-.623-1.083-1.272-2.259-.654-1.181-1.452-2.676-2.236-4.216-1.579-3.077-3.079-6.364-3.492-7.3l.242-.19c.395.326,1.275,1.046,2.393,2.007,1.116.957,2.447,2.13,3.729,3.303,2.572,2.341,4.924,4.693,5.306,5.082.269.271.492.439.678.532.189.096.339.115.456.08.233-.07.332-.356.331-.668,0-.165-.208-.484-.208-.484-.624-.698-4.16-5.285-7.729-9.651-3.545-4.362-7.097-8.5-7.265-8.702.411.068.841.146,1.279.232.439.088.897.2,1.346.307.9.218,1.785.452,2.573.669,1.568.417,2.795.843,3.023.836.526-.001.637-.769.44-1.142-.084-.157-.552-.471-1.005-.743-.453-.272-.89-.502-.89-.502Z" style="fill: #d09670;"/>
                <path d="M86.527,61.342c-1.203-.2-2.263-.391-3.597-.53-.663-.065-1.415-.133-2.259-.144-.846-.012-1.817.005-2.973.072-.333.019-.729.09-1.137.204l-.031-.022c-.142.036-.271.085-.383.15l-.036.013c-.089.032-.177.065-.265.1-1.209.513-1.754.943-1.754.943l-.08-.065c.244-.501.387-1.043.434-1.604.046-.562.024-1.121-.106-1.688-.253-1.127-.874-2.236-1.859-3.092-1.115-.968-2.497-1.416-3.854-1.322-.339.024-.677.079-1.005.17-.322.096-.636.226-.936.388-.602.325-1.151.78-1.602,1.356-.225.288-.416.592-.57.907-.077.157-.146.317-.206.479-.055.166-.101.333-.139.501-.15.674-.162,1.365-.041,2.029.24,1.332,1.015,2.553,2.232,3.389,1.057.726,2.268,1.052,3.412,1.033.572-.01,1.128-.108,1.644-.29.258-.091.506-.204.74-.338.117-.067.232-.139.342-.217.115-.074.226-.154.334-.239l.111.068s-.059.133-.144.402c-.076.276-.173.691-.257,1.247l.043.04c-.127.734-.121,1.514-.013,2.076.108.565.218,1.082.327,1.56.121.485.242.931.361,1.343.239.825.471,1.522.701,2.148.465,1.253.889,2.215,1.417,3.348,0,0,.228.439.499.894.27.456.583.927.739,1.011.372.199,1.137.091,1.139-.436.004-.121-.115-.524-.279-1.104-.16-.582-.371-1.348-.605-2.198-.231-.86-.476-1.818-.697-2.775-.196-.94-.367-1.88-.488-2.71l.195.198c.3.303,4.4,3.972,8.695,7.581,4.272,3.617,8.799,7.197,9.488,7.824,0,0,.317.21.481.211.312.003.592-.098.669-.327.083-.225-.05-.588-.589-1.13-.387-.385-2.726-2.759-5.052-5.353-2.349-2.591-4.613-5.359-5.252-6.156l.19-.242c.932.42,4.202,1.94,7.262,3.539,3.09,1.602,5.99,3.288,6.459,3.565,1.323.777,1.55.161,1.381-.452-.046-.161-.328-.416-.328-.416-.778-.51-5.364-4.021-9.926-7.313-4.55-3.305-9.06-6.401-9.273-6.552.839-.072,1.762-.123,2.675-.155.458-.014.907-.031,1.356-.031.449.005.886.01,1.302.015,1.653.029,2.911.087,3.13.023.492-.153.42-.904.131-1.217-.121-.129-.658-.316-1.169-.466-.505-.144-.981-.247-.981-.247Z" style="fill: #de9d64;"/>
                <path d="M74.663,77c-.617.056-1.194.109-1.783.163-.297.033-.596.066-.904.1-.306.039-.614.088-.942.143-1.306.224-2.865.563-5.085,1.278-.311.107-.669.281-1.026.501l-.035-.013c-.125.073-.235.156-.323.248l-.03.023c-.076.055-.151.111-.225.168-1.05.804-1.479,1.354-1.479,1.354l-.094-.043c.231-1.086.025-2.232-.525-3.265-.274-.516-.638-1.003-1.074-1.431-.432-.426-.944-.797-1.531-1.082-.663-.323-1.361-.506-2.052-.551-.684-.042-1.362.055-1.996.28-1.262.451-2.374,1.415-2.948,2.765-.545,1.363-.475,2.823.089,4.039.276.607.695,1.163,1.215,1.625.518.462,1.136.83,1.832,1.076,1.213.429,2.446.421,3.544.105,1.111-.314,2.073-.943,2.704-1.832l.124.037s-.079.582.031,1.694l.052.028c.058.739.245,1.484.515,2.006,1.046,2.084,1.887,3.429,2.64,4.517.786,1.093,1.489,1.925,2.266,2.875,0,0,.33.364.706.732.375.369.795.741.968.782.411.095,1.13-.205,1.003-.713-.029-.118-.234-.472-.549-.991-.159-.26-.342-.562-.544-.893-.203-.333-.429-.699-.641-1.081-.436-.767-.909-1.624-1.36-2.488-.225-.432-.445-.865-.651-1.288-.102-.213-.202-.421-.299-.624-.088-.203-.173-.4-.255-.591l.238.14c.185.106,1.499.78,3.407,1.724,1.915.947,4.424,2.158,6.973,3.35,5.094,2.395,10.363,4.666,11.193,5.092,0,0,.361.12.522.08.609-.155,1.02-.658-.314-1.427-.236-.137-1.088-.629-2.23-1.321-1.137-.69-2.577-1.587-4.029-2.532-2.909-1.88-5.854-3.984-6.682-4.59l.112-.286c1.01.165,4.581.797,7.964,1.558,3.393.748,6.59,1.611,7.126,1.764,1.485.413,1.561-.231,1.247-.774-.084-.143-.422-.316-.422-.316-.887-.294-6.234-2.51-11.501-4.518-5.268-2.028-10.402-3.843-10.647-3.934.765-.299,1.674-.573,2.554-.836.885-.261,1.766-.501,2.555-.706.78-.211,1.507-.368,2.045-.496.539-.127.901-.222,1-.28.453-.265.165-.987-.191-1.213-.15-.094-.712-.133-1.238-.142-.527-.01-1.019.009-1.019.009Z" style="fill: #f2c8aa;"/>
                <path d="M67.232,95.187c-1.16.424-2.149.795-3.371,1.343-1.207.556-2.678,1.277-4.571,2.558-.276.184-.58.445-.872.748l-.037-.004c-.104.103-.19.211-.252.323l-.024.03c-.061.072-.119.146-.177.22-.407.523-.692.945-.851,1.238-.159.294-.221.454-.221.454l-.102-.017c-.056-.558-.184-1.096-.408-1.603-.226-.507-.544-.984-.94-1.41-.791-.85-1.888-1.502-3.169-1.749-1.45-.28-2.864.027-3.983.791-.559.381-1.044.875-1.42,1.456-.379.58-.598,1.253-.697,1.979-.093.726-.032,1.437.159,2.094.096.329.224.643.381.94.159.297.363.577.583.834.889,1.032,2.179,1.701,3.651,1.815,1.279.099,2.483-.226,3.453-.816.49-.295.899-.66,1.271-1.075.368-.415.659-.883.855-1.394l.13.003s.068.582.451,1.625l.057.013c.252.698.67,1.372,1.047,1.804,1.541,1.738,2.661,2.816,3.722,3.673,1.04.852,1.924,1.473,2.914,2.189,0,0,.411.266.865.525.455.259.954.511,1.132.506.422-.014,1.044-.49.795-.948-.115-.213-1.149-1.158-2.434-2.416-.161-.158-.325-.32-.492-.485-.16-.167-.322-.336-.486-.507-.326-.344-.657-.7-.983-1.058-.651-.716-1.282-1.444-1.812-2.103l.269.074c.413.112,5.809,1.233,11.345,2.205,5.534.992,11.203,1.821,12.113,2.018,0,0,.38.022.526-.058.554-.309.831-.905-.652-1.302-.265-.072-1.205-.326-2.494-.699-1.283-.372-2.943-.87-4.575-1.403-3.286-1.059-6.665-2.324-7.618-2.694l.039-.305c1.017-.103,4.574-.431,8.071-.572,3.481-.159,6.814-.154,7.36-.148,1.528.01,1.4-.639.978-1.076-.116-.116-.488-.195-.488-.195-.935-.054-6.695-.807-12.272-1.368-5.586-.582-11.034-1.002-11.294-1.026.685-.484,1.445-.993,2.219-1.478.797-.48,1.595-.938,2.312-1.34,1.438-.804,2.533-1.388,2.713-1.547.377-.371-.081-.991-.484-1.116-.17-.052-.726.056-1.242.182-.515.126-.99.271-.99.271Z" style="fill: #ffe3cb;"/>
                <path d="M120.128,41.633c-.944-.781-1.769-1.481-2.857-2.275-.548-.405-1.151-.796-1.881-1.234-.729-.436-1.58-.911-2.619-1.436-.299-.151-.679-.289-1.09-.397l-.016-.034c-.142-.042-.276-.055-.404-.052l-.037-.005c-.092-.014-.184-.027-.277-.037-1.306-.159-1.996-.064-1.996-.064l-.037-.097c.928-.612,1.58-1.599,1.927-2.7.345-1.098.364-2.367-.063-3.6-.483-1.396-1.459-2.476-2.687-3.077-1.212-.57-2.668-.641-4.032-.099-.34.138-.661.298-.949.502-.287.206-.549.439-.783.692-.469.507-.825,1.098-1.053,1.732-.458,1.271-.397,2.713.242,4.044.555,1.156,1.444,2.044,2.448,2.6,1.006.555,2.126.779,3.196.583l.062.114s-.464.363-1.167,1.238l.017.056c-.478.57-.864,1.246-1.051,1.785-.092.271-.18.532-.265.783-.077.258-.151.507-.222.746-.137.48-.256.925-.359,1.341-.206.832-.352,1.549-.466,2.204-.113.657-.197,1.244-.263,1.83-.057.59-.112,1.169-.171,1.787,0,0-.021.493-.014,1.021.007.529.043,1.091.136,1.242.224.358.942.648,1.208.194.062-.105.165-.504.307-1.098.137-.602.34-1.348.566-2.212.229-.857.496-1.807.783-2.744.073-.234.147-.468.219-.698.079-.224.157-.446.234-.663.157-.435.315-.853.47-1.241l.07.268c.109.412,1.834,5.633,3.76,10.897,1.917,5.292,4.052,10.633,4.338,11.522,0,0,.171.34.313.424.54.319,1.176.227.787-1.233-.143-.526-.989-3.744-1.712-7.146-.365-1.699-.706-3.441-.969-4.887-.263-1.444-.441-2.572-.523-3.076l.286-.112c.599.83,2.678,3.785,4.533,6.703.931,1.454,1.817,2.899,2.505,4.062.686,1.155,1.168,2.002,1.304,2.241.758,1.337,1.262.924,1.421.312.041-.162-.076-.523-.076-.523-.419-.832-2.639-6.17-4.95-11.303-2.293-5.139-4.659-10.077-4.768-10.314.765.36,1.592.781,2.401,1.214.404.216.804.436,1.191.652.386.215.758.426,1.115.646,1.421.861,2.483,1.548,2.705,1.603.506.127.81-.593.718-1.005-.04-.173-.409-.594-.775-.97-.365-.376-.726-.707-.726-.707Z" style="fill: #a87254;"/>
                <path d="M139.587,38.94c-.71-.991-1.325-1.875-2.171-2.915-.423-.518-.906-1.084-1.496-1.706-.59-.604-1.288-1.276-2.153-2.044-.249-.221-.579-.45-.948-.656l-.006-.037c-.126-.074-.252-.13-.377-.163l-.035-.016c-.085-.04-.171-.079-.258-.115-.611-.276-1.088-.398-1.413-.482-.325-.08-.496-.1-.496-.1l-.01-.103c.527-.181,1.01-.479,1.441-.828.432-.345.809-.773,1.118-1.262.617-.978.962-2.203.87-3.505-.104-1.473-.765-2.764-1.791-3.655-.256-.223-.534-.42-.831-.589-.297-.171-.611-.31-.938-.402-.655-.192-1.365-.254-2.092-.162-.726.092-1.398.331-1.984.681-.585.356-1.08.854-1.465,1.409-.771,1.119-1.086,2.535-.815,3.986.235,1.261.861,2.344,1.684,3.133.825.793,1.844,1.265,2.934,1.406l.031.126s-.135.053-.386.185c-.25.133-.616.336-1.066.681l.002.059c-.608.435-1.155.996-1.475,1.473-.644.962-1.152,1.779-1.569,2.522-.413.758-.74,1.42-1.019,2.029-.556,1.218-.928,2.227-1.365,3.363,0,0-.151.461-.279.982-.13.517-.24,1.074-.189,1.244.124.407.737.854,1.113.492.176-.164.822-1.398,1.708-2.954.874-1.585,2.035-3.354,3.037-4.719l-.002.278c-.002.427.307,5.926.798,11.519.472,5.601,1.135,11.273,1.184,12.219,0,0,.077.373.191.489.44.453,1.086.579,1.087-.954-.002-.547.017-3.887.202-7.373.087-1.749.217-3.484.34-4.943.124-1.453.243-2.603.296-3.109l.305-.039c.363.96,1.598,4.323,2.635,7.635,1.055,3.329,1.914,6.557,2.049,7.088.386,1.483.984,1.205,1.297.65.082-.145.063-.523.063-.523-.191-.918-.953-6.635-1.854-12.187-.883-5.551-1.885-10.928-1.928-11.185,1.292,1.085,2.746,2.431,3.892,3.647,1.149,1.188,1.998,2.117,2.199,2.226.456.239.936-.349.953-.771.006-.176-.242-.691-.499-1.156-.256-.455-.519-.866-.519-.866Z" style="fill: #9b7351;"/>
              </g>
              <g>
                <path d="M204.901,75.758c.528-1.133.953-2.095,1.417-3.348.229-.626.462-1.322.701-2.148.119-.413.24-.858.361-1.343.109-.477.219-.994.327-1.56.062-.325.09-.724.078-1.145l.029-.024c0-.146-.017-.282-.053-.406l-.004-.038c-.009-.093-.02-.187-.033-.28-.085-.657-.193-1.151-.281-1.476-.097-.319-.168-.476-.168-.476l.084-.061c.437.352.902.644,1.425.836.52.195,1.084.302,1.665.319,1.162.032,2.396-.292,3.472-1.031,1.217-.836,1.992-2.057,2.232-3.389.121-.665.109-1.356-.041-2.029-.038-.168-.084-.336-.139-.501-.059-.162-.128-.322-.206-.479-.155-.315-.345-.619-.57-.907-.451-.576-1-1.031-1.602-1.356-.301-.162-.615-.292-.937-.388-.328-.091-.666-.146-1.005-.17-1.358-.094-2.74.354-3.854,1.322-.968.841-1.584,1.927-1.846,3.034-.133.556-.166,1.108-.126,1.659.037.553.165,1.089.391,1.587l-.093.09s-.462-.359-1.473-.819l-.05.031c-.679-.307-1.447-.487-2.02-.521-1.157-.067-2.127-.083-2.974-.072-.844.011-1.596.079-2.259.144-1.334.139-2.394.33-3.597.53,0,0-.475.103-.98.247-.512.15-1.049.337-1.169.466-.289.313-.361,1.064.131,1.217.231.069,1.626,0,3.42-.027.446-.005.927-.016,1.401-.007.474.01.958.025,1.442.045.966.041,1.926.104,2.766.19l-.241.139c-.37.215-4.957,3.268-9.535,6.525-4.591,3.242-9.162,6.695-9.941,7.204,0,0-.283.255-.328.416-.17.612.058,1.228,1.382.452.467-.276,3.376-1.963,6.461-3.556,3.062-1.595,6.336-3.112,7.268-3.531l.19.242c-.32.395-1.048,1.29-1.987,2.402-.932,1.109-2.113,2.46-3.275,3.748-2.329,2.59-4.67,4.96-5.058,5.344-.54.541-.672.903-.59,1.128.07.233.355.332.666.329.164-.001.482-.211.482-.211.346-.317,1.663-1.363,3.436-2.783,1.775-1.421,3.999-3.217,6.159-5.003,4.335-3.569,8.458-7.153,8.657-7.321-.14.829-.296,1.718-.512,2.622-.215.903-.447,1.792-.662,2.583-.216.783-.409,1.482-.556,2.012-.152.531-.256.896-.253,1.011.002.528.767.635,1.139.436.156-.085.469-.555.739-1.011.271-.455.499-.894.499-.894Z" style="fill: #d09670;"/>
                <path d="M192.731,60.338c.195-1.208.382-2.272.516-3.61.033-.334.064-.689.086-1.063.017-.369.029-.762.034-1.186.009-.849-.012-1.822-.083-2.982-.02-.334-.093-.731-.208-1.139l.022-.031c-.036-.144-.087-.271-.156-.378l-.014-.035c-.034-.087-.07-.172-.108-.257-.521-1.207-.95-1.754-.95-1.754l.065-.081c.5.243,1.042.385,1.601.431.56.046,1.14-.006,1.697-.129,1.122-.258,2.227-.883,3.076-1.874.961-1.121,1.402-2.508,1.303-3.868-.112-1.339-.787-2.625-1.939-3.529-.289-.224-.59-.418-.909-.566-.322-.144-.655-.253-.991-.327-.673-.148-1.362-.158-2.025-.035-1.327.245-2.542,1.025-3.37,2.247-.72,1.062-1.039,2.276-1.014,3.423.026,1.148.397,2.228,1.104,3.053l-.067.111s-.547-.218-1.656-.383l-.04.043c-.733-.126-1.511-.118-2.07-.008-.28.057-.55.112-.81.166-.261.064-.513.125-.756.184-.484.123-.927.245-1.338.365-.822.241-1.515.476-2.139.707-.624.234-1.173.455-1.714.695-.538.248-1.067.492-1.63.752,0,0-.437.23-.89.502-.453.272-.921.586-1.005.743-.196.373-.085,1.14.441,1.142.243.004,1.596-.462,3.299-.912.856-.234,1.81-.481,2.765-.705.239-.055.478-.109.713-.163.233-.045.464-.089.69-.132.454-.084.896-.158,1.309-.22l-.197.196c-.301.302-3.942,4.422-7.521,8.736-3.607,4.322-7.147,8.854-7.771,9.549,0,0-.207.319-.209.483-.003.628.397,1.131,1.463.06.382-.389,2.738-2.739,5.314-5.077,1.284-1.171,2.617-2.343,3.735-3.299,1.114-.952,1.999-1.676,2.394-2l.241.19c-.415.936-1.918,4.22-3.501,7.294-.394.77-.79,1.528-1.168,2.239-.384.718-.75,1.389-1.075,1.976-.65,1.175-1.137,2.019-1.274,2.257-.77,1.329-.156,1.557.454,1.386.161-.046.414-.33.414-.33.506-.782,3.991-5.393,7.256-9.978,3.278-4.573,6.348-9.106,6.498-9.319.075.841.13,1.767.165,2.683.031.92.061,1.81.04,2.649-.023,1.658-.077,2.92-.012,3.14.146.501.926.395,1.229.112.131-.125.308-.656.447-1.16.139-.504.242-.983.242-.983Z" style="fill: #de9d64;"/>
                <path d="M177.005,48.566c-.059-.618-.115-1.197-.171-1.787-.066-.587-.15-1.174-.263-1.83-.114-.655-.26-1.372-.466-2.204-.103-.416-.221-.86-.359-1.341-.071-.24-.145-.488-.222-.746-.085-.251-.174-.512-.265-.783-.109-.312-.285-.67-.505-1.027l.013-.035c-.074-.125-.157-.235-.249-.323l-.023-.03c-.055-.076-.111-.151-.169-.225-.808-1.05-1.36-1.479-1.36-1.479l.042-.095c1.085.229,2.228.021,3.255-.532,1.026-.554,1.936-1.452,2.501-2.629.639-1.331.7-2.773.242-4.044-.228-.635-.585-1.225-1.053-1.732-.234-.253-.496-.486-.783-.692-.288-.205-.609-.364-.949-.502-1.364-.542-2.82-.471-4.032.099-1.228.601-2.205,1.682-2.687,3.077-.42,1.212-.409,2.458-.081,3.543.331,1.084.956,2.068,1.849,2.692l-.036.125s-.582-.078-1.691.033l-.027.052c-.733.046-1.492.28-2.007.541-1.039.525-1.89.999-2.619,1.436-.729.438-1.333.828-1.881,1.234-1.089.794-1.913,1.494-2.857,2.275,0,0-.361.331-.726.707-.366.376-.735.797-.775.97-.092.412.212,1.132.718,1.005.235-.058,1.41-.824,2.954-1.754,1.525-.889,3.426-1.901,4.976-2.601l-.139.241c-.213.371-2.668,5.311-5.01,10.423-2.361,5.106-4.597,10.385-5.018,11.217,0,0-.118.362-.077.523.158.611.662,1.024,1.422-.313.268-.474,1.948-3.4,3.817-6.295,1.859-2.916,3.942-5.869,4.542-6.699l.286.112c-.083.506-.26,1.627-.528,3.079-.265,1.446-.608,3.187-.975,4.885-.727,3.4-1.577,6.616-1.72,7.142-.099.368-.132.646-.118.853.012.212.071.351.159.434.177.166.474.107.743-.051.142-.084.313-.423.313-.423.289-.89,2.472-6.255,4.448-11.538,1.984-5.258,3.769-10.411,3.859-10.658.148.389.298.8.444,1.221.146.423.279.876.413,1.317.265.887.508,1.77.718,2.56.428,1.565.68,2.837.799,3.032.266.454.985.164,1.208-.194.093-.151.129-.714.136-1.242.007-.528-.014-1.021-.014-1.021Z" style="fill: #f2c8aa;"/>
                <path d="M158.77,41.252c-.437-1.136-.809-2.145-1.365-3.363-.279-.609-.605-1.271-1.019-2.029-.417-.743-.925-1.561-1.569-2.522-.186-.276-.448-.58-.753-.872l.003-.037c-.104-.104-.212-.189-.324-.252l-.03-.024c-.072-.06-.146-.119-.221-.177-.263-.203-.499-.381-.709-.513-.21-.131-.39-.235-.537-.314-.294-.159-.455-.221-.455-.221l.016-.102c1.114-.112,2.158-.583,3.005-1.375.845-.793,1.489-1.891,1.728-3.174.271-1.451-.044-2.867-.815-3.986-.385-.555-.88-1.053-1.465-1.409-.586-.35-1.258-.588-1.984-.681-.726-.092-1.436-.03-2.091.162-.327.092-.642.23-.938.402-.297.169-.575.367-.831.589-1.026.89-1.687,2.182-1.791,3.655-.091,1.279.241,2.484.838,3.454.299.485.665.911,1.083,1.259.419.344.887.653,1.399.843l-.002.13s-.144.017-.42.082c-.137.033-.308.077-.509.138-.201.057-.433.138-.693.248l-.013.057c-.698.269-1.368.675-1.797,1.057-.865.768-1.563,1.439-2.153,2.044-.59.621-1.073,1.188-1.496,1.706-.845,1.041-1.461,1.924-2.171,2.915,0,0-.263.41-.519.866-.256.465-.505.979-.499,1.156.016.422.496,1.01.952.771.212-.115,1.151-1.148,2.401-2.434.316-.321.648-.658.986-1.001.342-.33.695-.658,1.052-.985.712-.652,1.436-1.283,2.09-1.814l-.072.269c-.11.413-1.196,5.813-2.133,11.351-.956,5.536-1.749,11.207-1.941,12.117,0,0-.02.38.062.527.312.555.909.833,1.298-.65.137-.53,1-3.759,2.059-7.087,1.039-3.302,2.281-6.672,2.645-7.63l.305.039c.052.507.17,1.656.292,3.109.122,1.457.249,3.196.333,4.947.181,3.485.195,6.824.193,7.371-.002,1.535.646,1.402,1.085.958.115-.116.192-.489.192-.489.051-.949.757-6.668,1.287-12.266.547-5.593.932-11.047.955-11.307.488.683,1,1.45,1.49,2.218.246.378.484.775.71,1.167.223.388.44.767.647,1.127.812,1.436,1.399,2.547,1.565,2.702.377.362.99-.086,1.114-.492.051-.17-.06-.727-.189-1.244-.128-.521-.279-.982-.279-.982Z" style="fill: #ffe3cb;"/>
                <path d="M212.655,93.809c.778-.95,1.48-1.781,2.266-2.875.753-1.088,1.594-2.433,2.64-4.517.153-.301.289-.682.376-1.087l.034-.016c.035-.14.052-.276.048-.404l.005-.038c.014-.092.026-.185.036-.278.157-1.309.061-2.001.061-2.001l.096-.037c.618.924,1.585,1.579,2.711,1.91,1.115.333,2.368.349,3.603-.088.696-.247,1.314-.614,1.832-1.076.52-.462.939-1.018,1.215-1.625.564-1.217.634-2.677.09-4.039-.574-1.35-1.686-2.314-2.948-2.765-.634-.225-1.312-.322-1.996-.28-.691.045-1.389.228-2.052.551-.577.281-1.082.644-1.509,1.06-.43.418-.793.895-1.068,1.4-.552,1.011-.773,2.135-.576,3.206l-.113.063s-.363-.463-1.238-1.163l-.056.017c-.569-.476-1.245-.859-1.783-1.044-2.22-.715-3.779-1.054-5.085-1.278-.328-.055-.636-.104-.942-.143-.308-.034-.608-.067-.904-.1-.589-.054-1.166-.107-1.783-.163,0,0-.492-.019-1.019-.009-.527.009-1.088.048-1.238.142-.356.226-.645.948-.192,1.213.105.062.503.163,1.095.302.298.069.642.149,1.021.237.376.091.776.197,1.205.309.855.225,1.803.488,2.738.771.467.141.933.288,1.379.436.434.155.852.311,1.239.464l-.268.072c-.205.057-1.61.523-3.619,1.22-2.007.696-4.62,1.63-7.263,2.614-5.284,1.953-10.602,4.117-11.489,4.409,0,0-.339.173-.422.316-.314.542-.238,1.186,1.248.775.527-.148,3.733-1.011,7.126-1.754,3.383-.756,6.962-1.386,7.964-1.546l.112.286c-.828.605-3.775,2.704-6.685,4.58-1.453.943-2.894,1.838-4.031,2.526-1.151.693-1.997,1.182-2.235,1.319-1.334.768-.923,1.271-.314,1.426.161.04.522-.079.522-.079.83-.425,6.157-2.68,11.279-5.025,5.127-2.327,10.056-4.727,10.288-4.836-.712,1.538-1.679,3.317-2.486,4.724-.845,1.424-1.541,2.495-1.592,2.717-.127.508.593.808,1.004.713.173-.041.593-.413.968-.782.375-.368.706-.732.706-.732Z" style="fill: #a87254;"/>
                <path d="M215.467,113.25c.991-.717,1.875-1.337,2.915-2.189,1.061-.857,2.181-1.935,3.722-3.673.22-.251.449-.582.655-.952l.037-.006c.074-.127.13-.253.163-.378l.016-.035c.04-.085.079-.172.115-.259.477-1.221.557-1.912.557-1.912l.103-.011c.185.526.471,1.008.837,1.436.375.427.782.804,1.278,1.11.978.611,2.203.949,3.504.848,1.472-.113,2.763-.783,3.651-1.815.22-.257.424-.538.583-.834.158-.297.286-.612.381-.94.191-.656.253-1.368.159-2.094-.1-.725-.318-1.399-.697-1.979-.376-.581-.86-1.075-1.42-1.456-1.119-.765-2.534-1.071-3.983-.791-1.259.243-2.34.876-3.128,1.705-.394.415-.714.88-.945,1.375-.234.496-.363,1.021-.433,1.567l-.126.031s-.053-.135-.185-.385c-.133-.249-.369-.609-.705-1.059l-.059.002c-.435-.606-.996-1.15-1.473-1.467-1.893-1.281-3.364-2.002-4.571-2.558-1.222-.548-2.211-.919-3.371-1.343,0,0-.475-.145-.99-.271-.516-.127-1.072-.234-1.242-.182-.402.126-.86.745-.484,1.116.192.168,1.405.812,2.965,1.689.772.439,1.646.933,2.462,1.452.808.52,1.599,1.058,2.277,1.554h-.278c-.427,0-5.92.344-11.506.87-2.796.258-5.608.552-7.849.8-2.247.248-3.907.442-4.376.465,0,0-.372.079-.488.194-.421.436-.559,1.087.974,1.077.546-.005,3.881-.006,7.363.157,1.742.077,3.518.189,4.961.306,1.451.115,2.6.227,3.106.277l.039.305c-.953.368-4.332,1.629-7.619,2.683-3.305,1.073-6.549,1.955-7.075,2.094-1.483.396-1.206.992-.652,1.301.147.081.526.059.526.059.91-.196,6.632-.995,12.18-1.931,5.549-.918,10.923-1.954,11.179-1.999-.539.648-1.153,1.341-1.773,2.013-.31.336-.622.667-.927.986-.302.319-.628.627-.921.916-1.187,1.157-2.117,2.012-2.226,2.213-.249.458.373.934.795.948.177.005.677-.247,1.132-.506.455-.258.865-.525.865-.525Z" style="fill: #9b7351;"/>
              </g>
            </g>
          </g>
          <g>
            <g>
              <path d="M189.146,151.011c-20.276,27.077-58.66,32.589-85.738,12.314-27.075-20.278-32.588-58.664-12.311-85.742,20.274-27.073,58.662-32.586,85.739-12.309,27.077,20.277,32.586,58.663,12.31,85.738Z" style="fill: #80cfdf;"/>
              <path d="M140.044,175.702c-12.811,0-25.723-3.982-36.744-12.234-27.11-20.305-32.649-58.881-12.347-85.993,9.834-13.132,24.195-21.649,40.437-23.981,16.242-2.332,32.42,1.8,45.553,11.635,13.134,9.835,21.651,24.196,23.982,40.437,2.332,16.241-1.801,32.418-11.636,45.551l-.143-.107.143.107c-12.049,16.091-30.539,24.584-49.244,24.584ZM140.249,53.217c-2.923,0-5.864.209-8.809.632-16.147,2.319-30.424,10.786-40.201,23.841-20.184,26.954-14.677,65.305,12.275,85.492,10.955,8.203,23.795,12.163,36.53,12.163,18.599,0,36.977-8.442,48.957-24.441,9.778-13.057,13.887-29.14,11.568-45.286-2.318-16.147-10.785-30.424-23.843-40.202-10.676-7.995-23.376-12.199-36.479-12.199Z" style="fill: #1a74b2;"/>
            </g>
            <path d="M93.55,152.63c.313.726.595,1.479.938,2.192.103.241.223.473.35.702.247.268.497.54.75.805.959-.476,1.915-.956,2.873-1.438.206-.468.372-.95.495-1.447.23-.935.369-1.999.801-2.873.744-1.501,1.923-2.876,3.593-3.391,2.061-.635,5.046-.834,6.657-2.406.378-.366.806-.806,1.32-.977,2.606-.874,5.418-.904,8.094-1.632,3.562-.968,5.849-2.75,8.886-4.731,2.667-1.743,6.874-2.063,8.72-4.873,2.469-3.76-1.369-6.926-3.065-10.092-1.749-3.266-3.769-6.998-3.335-10.837.397-3.507,2.574-8.092,1.308-11.548-.601-1.642-1.639-1.116-2.483-2.138-.627-.762-1.011-1.642-1.612-2.408-1.847-2.347-5.318-1.805-7.852-1.43-1.03.151-4.529.719-4.531-1.214-.001-3.191,3.22-9.234,6.568-5.421,1.968,2.245,6.65,2.182,7.392-1.244.306-1.403-.46-2.197-1.135-3.173-.671-.968-1.339-1.869-1.32-3.073.019-1.298,2.16-1.178,2.91-.969,1.901.534,5.411,1.777,5.8,4.072.259,1.516-.002,4.715,1.502,5.512,3.199,1.696,4.335-.441,6.583-1.641,2.559-1.366,4.963.626,6.888,2.128,2.929,2.282,6.39,3.544,8.514,6.708,1.713,2.551,3.873,1.013,6.007-.215,1.339-.771,2.648-1.591,3.958-2.41,1.421-.886,3.158-1.566,4.361-2.737,2.56-2.493,1.705-6.953-1.04-9.016-3.414-2.567-7.377-4.285-10.429-7.375-1.01-1.02-1.942-2.135-2.012-3.651-.097-2.183.774-4.476-1.077-6.207-.294-.275-.214-.726.173-.895,3.209-1.421,5.119.815,8.153,1.544,2.105.505,4.109-.607,6.076-1.999-18.717-12.103-41.929-12.743-60.849-3.192,1.209.995,3.034,2.449,2.911,3.827-.086.969-.396,1.617-.915,2.44-1.18,1.866-.95,2.81.08,4.448,3.094,4.938-4.286,10.763-3.863,15.8.171,2.016.571,7.686-3.284,6.168-1.493-.589-2.654-1.677-4.002-2.51-4.86-2.994-3.635,4.473-3.153,6.939,1.011,5.179-2.277,5.669-6.567,7.101-2.42.81-.902,5.21-1.612,7.485-1.093,3.487-3.193,5.871-5.004,8.946-1.708,2.903.135,3.626.809,5.924.407,1.39.682,2.788.831,4.232.343,3.351,1.09,6.881.884,10.254-.185,3.031,1.903,6.028,2.93,8.814.103.279.558,1.562,1.023,3.119Z" style="fill: #84d1f6; mix-blend-mode: multiply;"/>
            <path d="M197.849,93.835c-3.088.573-5.817,1.692-5.485,5.148.189,1.988,1.148,4.839-.86,6.152-.856.558-2.403.189-3.221-.226-3.12-1.573-5.492,2.464-6.998,4.676-1.169,1.714-2.362,3.316-3.846,4.769-3.341,3.262,1.649,5.138,4.569,5.129.264-.002.748.119.677.496-.23,1.223-.709,2.031-1.395,3.071-1.713,2.605.969,3.269,2.894,3.986,1.869.7,3.265,1.307,3.446,3.398.154,1.772-2.569,2.658-.598,4.914.847.969.993,1.56,1.042,2.851.096,2.403-3.45,3.595-4.915,4.632-.356.248-.959.358-1.168-.134-1.054-2.479-2.275-7.673-5.861-5.848-.967.49-2.131.838-3.038-.06-1.667-1.644-3.023-7.27-6.285-5.116-1.335.884-2.647,1.967-4.187,2.474-2.252.742-3.795.313-5.943-.551-5.324-2.147-4.536,3.087-5.824,5.977-.555,1.248-1.301,2.523-1.627,3.857-.496,2.036,1.826,2.198,2.846,2.789,1.105.638,1.917,1.407,2.082,2.716.337,2.699.831,6.822-2.375,7.952-1.096.381-2.287.499-3.364.914-2.714,1.047-2.302,2.768-2.266,4.879.028,1.745-.373,2.864-1.734,3.977-.77.627-1.994.851-2.912,1.102-1.862.51-3.288,1.345-4.807,2.525-1.317,1.027-2.859,2.378-4.597,2.582-3.35.403-6.226-1.667-9.638-.732-.443.121-.877.264-1.314.403,24.251,7.902,51.86.03,67.998-21.522,12.749-17.025,15.295-38.521,8.703-57.176ZM194.23,116.974c-1.739,1.144-4.048,1.855-6.132,1.903-.336.01-.834-.209-.645-.641.612-1.4,1.531-2.944,3.074-3.446,1.496-.484,2.897.073,4.079,1.016.331.266.201.603-.071.81-.061.141-.167.265-.306.358Z" style="fill: #84d1f6; mix-blend-mode: multiply;"/>
            <g>
              <g>
                <path d="M137.541,79.632c1.095,1.302.37,3.243.206,4.692-.505,4.456,2.32,1.453,4.012.765,1.572-.638,2.05-1.683,3.999-1.27,1.949.413,3.716,1.284,5.473,2.209,2.397,1.256,4.548,2.436,6.547,4.292,3.124,2.89,4.996,4.848,9.562,1.94,2.21-1.407,6.604-4.34,4.005-7.638-1.799-2.282-4.019-3.292-6.582-4.508-2.54-1.21-4.5-2.475-6.242-4.725-1.311-1.7-1.146-4.171-2.418-6.027-.908-1.33-2.365-3.023-2.563-4.699-.433-3.641,4.065-4.031,6.716-3.82.905.073,2.033.785,2.798,1.235,2.849,1.673,5.071,1.309,7.834.294.358-.133.713-.265,1.066-.391-17.914-10.929-39.664-11.626-57.796-3.158.065.365.276.711.693,1.021.286.181.546.386.779.622.416.539,1.113,1.366.97,2.124-.431,2.304-2.716,5.354-.304,7.527.642.579,1.252,1.197,1.516,2.052.834,2.703-2.307,4.919-3.093,7.265-1.506,4.498-2.867,9.071-3.36,13.802-.062.603-.792,1.084-1.383.948-2.32-.525-4.081-1.861-6.239-2.766-4.486-1.877-1.185,6.366-1.103,7.713.353,5.76-4.214,5.379-8.333,5.985.509,2.977.493,5.505-.929,8.363-2.152,4.33-5.322,8.319-4.351,13.457.882,4.65,2.177,8.976,2.609,13.714.495,5.414,3.092,9.473,5.408,14.059.774-2.566-.252-6.397,2.179-7.987,2.95-1.929,6.455-1.444,9.196-3.939,1.171-1.062,3.105-1.085,4.546-1.089,2.746-.009,5.18.067,7.637-1.608,4.4-3.003,7.994-4.846,12.953-6.599,9.22-3.256-6.875-14.367-5.03-20.696,1.463-5.013,1.883-12.283-3.145-15.751-2.658-1.834-6.216-.591-9.245-1.716-.843.497-1.677.818-2.354.568-1.357-.499-1.029-2.302-1.004-3.448.049-2.208.265-4.671,2.102-6.176,1.921-1.572,4.267-2.424,6.245-3.915-.383-1.168-1.556-3.161-1.204-3.932.74-1.617,2.045-2.891,3.148-4.266.354-.437.93-.629,1.473-.452,4.202,1.359,10.014,2.379,13.002,5.928Z" style="fill: #9ccb3b;"/>
                <path d="M187.759,150.079c-.952-1.446-1.615-4.779-4.004-4.278-.379.078-1.151.037-1.295-.421-.144-.027-.288-.047-.429-.082-.079-.017-.132-.049-.198-.076-.066.043-.139.105-.209.145-.489.293-1.334.259-1.556-.361-.611-1.708-.909-3.383-1.313-5.132-.479-2.05-3.967-.737-5.313-.473-.306.061-.713-.078-.899-.33-1.562-2.133-4.258-7.026-7.2-4.24-1.247,1.18-1.975,1.434-3.666,1.702-1.794.287-4.071-.178-5.89-.31-2.427-.174-5.291,6.235-2.436,7.219,2.712.936,4.968,2.708,5.444,5.659.426,2.665,1.426,7.303-.215,9.73-.471.689-1.118,1.258-1.984,1.386-2.837.425-5.275,1.175-6.368,4.118-1.424,3.821-1.67,4.672-5.333,6.853-2.997,1.789-5.707,2.741-9.239,2.801-2.332.04-4.606.007-6.656.413,22.014,3.966,45.392-4.308,59.776-23.358-.394-.234-.746-.549-1.019-.967Z" style="fill: #9ccb3b;"/>
                <path d="M198.411,95.531c-.418.034-.824.081-1.222.152-4.634.865-2.874,6.396-3.062,9.632-.101,1.728-1.175,6.048.064,7.525,1.118,1.337,3.943,4.04,1.578,5.733-3.004,2.156-6.847,2.323-9.959,4.208-.01.009-.027.007-.037.016-.468.297-.926.607-1.361.942-.613.477-1.249.923-.274,1.582.771.523,1.666.778,2.583.92,1.39.217,2.8.245,4.19.455.266.04.504.185.64.391.415.093.693.383.473.885-1.031,2.363,2.617,3.65,1.191,5.941-.413.666-1.003,1.221-1.462,1.775-.224.678-.421,1.363-.565,2.061.087.255.228.528.456.829.022.026.051.059.074.091,1.449.556,2.957,1.486,2.832,3.154-.02.259-.061.508-.118.762,7.73-14.814,8.882-31.787,3.98-47.053Z" style="fill: #9ccb3b;"/>
                <path d="M188.154,114.577c.449-1.09.765-2.323.84-3.557.049-.162.091-.33.155-.486.336-.833.664-1.715.728-2.611.105-1.427-1.681-1.944-2.729-1.367-1.76.966-3.727,2.259-4.958,3.847-.882,1.137-2.03,2.557-1.568,4.089.434,1.441,2.607,1.975,3.854,2.209,1.261.233,3.199-.967,3.678-2.124Z" style="fill: #9ccb3b;"/>
              </g>
              <path d="M127.928,86.034c-.148-1.529-1.42-2.851-3.022-2.473-.153-.03-.33.003-.431.108-.031.03-.064.067-.096.099-.318.189-.548.473-.709.802-.595.743-1.065,1.611-.878,2.562.255,1.311,2.164,1.99,3.322,1.788,1.282-.226,1.93-1.72,1.814-2.887Z" style="fill: #9ccb3b;"/>
            </g>
            <g>
              <path d="M137.993,53.542s-50.013,2.808-56.483,51.573c0,0,10.061-44.315,56.483-51.573Z" style="fill: #fff; mix-blend-mode: overlay;"/>
              <path d="M199.499,123.676s-14.994,42.878-51.714,49.688c0,0,38.437-.077,51.714-49.688Z" style="fill: #cfe6d5; mix-blend-mode: multiply;"/>
            </g>
            <g style="mix-blend-mode: multiply;">
              <path d="M195.543,122.961c-3.513,5.849-8.079,11.051-13.485,15.219-5.731,4.419-12.342,7.614-19.323,9.497-6.708,1.81-13.74,2.413-20.673,2.252-6.664-.155-13.317-1.079-19.765-2.773-6.372-1.674-12.562-4.107-18.295-7.363-5.54-3.146-10.658-7.079-14.956-11.792-4.266-4.679-7.678-10.113-9.935-16.034-.061-.159-.117-.32-.175-.48-.882,19.566,7.613,39.212,24.471,51.838,27.078,20.276,65.462,14.763,85.738-12.314,9.115-12.171,13.012-26.628,12.088-40.698-1.409,4.415-3.304,8.674-5.691,12.648Z" style="fill: #84d1f6;"/>
            </g>
          </g>
        </g>
      </g>
    </g>
  </g>
</svg>